<?xml version="1.0" standalone="no"?>
<!DOCTYPE svg PUBLIC "-//W3C//DTD SVG 20010904//EN"
 "http://www.w3.org/TR/2001/REC-SVG-20010904/DTD/svg10.dtd">
<svg version="1.0" xmlns="http://www.w3.org/2000/svg"
 width="4096.000000pt" height="5000.000000pt" viewBox="0 0 4096.000000 5000.000000"
 preserveAspectRatio="xMidYMid meet">

<g transform="translate(0.000000,5000.000000) scale(0.100000,-0.100000)"
fill="#000000" stroke="none">
<path d="M20290 49939 c-1336 -510 -2211 -869 -3270 -1342 -1124 -501 -2275
-1066 -3325 -1629 -3162 -1698 -5958 -3661 -8375 -5878 -685 -628 -1491 -1435
-2125 -2125 -1145 -1246 -2258 -2657 -3158 -4005 l-37 -55 0 -695 c0 -2167
145 -4419 420 -6535 967 -7433 3552 -13941 7779 -19582 193 -257 230 -302 256
-307 17 -3 2727 -359 6023 -791 l5994 -785 1926 260 c4196 566 6823 920 8433
1137 l1686 227 181 247 c4856 6620 7575 13984 8152 22079 37 527 64 1036 92
1735 19 480 18 3020 -1 3055 -8 14 -84 124 -169 245 -1876 2659 -4134 5072
-6742 7205 -3388 2771 -7371 5089 -12040 7007 -658 271 -1489 594 -1523 592
-12 -1 -92 -28 -177 -60z m364 -645 c2577 -997 5019 -2149 7199 -3396 4438
-2537 8081 -5573 11003 -9167 474 -584 1007 -1287 1413 -1863 l82 -117 11
-518 c14 -740 2 -1811 -32 -2643 -207 -5086 -1255 -9898 -3138 -14400 -523
-1252 -1143 -2545 -1799 -3755 -831 -1532 -1801 -3078 -2846 -4540 -292 -407
-365 -505 -380 -505 -8 0 -1400 -187 -3093 -415 -1693 -229 -4313 -582 -5821
-785 -1507 -204 -2760 -370 -2783 -370 -32 0 -11514 1500 -11681 1526 -34 5
-48 22 -227 263 -1601 2164 -2935 4405 -4045 6796 -2111 4549 -3367 9554
-3777 15050 -87 1169 -131 2264 -146 3650 l-6 600 147 215 c968 1408 2036
2726 3269 4035 235 248 1046 1060 1301 1301 2441 2305 5179 4273 8385 6026
1943 1063 4143 2074 6340 2914 179 69 345 133 370 144 25 10 54 19 64 19 10 1
96 -29 190 -65z"/>
<path d="M20310 48849 c-85 -33 -256 -98 -380 -146 -4433 -1695 -8343 -3844
-11583 -6365 -2884 -2243 -5328 -4840 -7235 -7685 l-62 -92 0 -633 c0 -2681
228 -5435 661 -7978 777 -4572 2213 -8732 4337 -12560 821 -1481 1719 -2868
2758 -4260 l242 -325 5711 -749 5711 -750 198 27 c541 72 11171 1507 11199
1512 29 5 54 36 231 278 1728 2371 3135 4766 4279 7287 2448 5394 3621 11191
3533 17460 -6 382 -13 706 -16 719 -12 54 -644 926 -1063 1466 -3016 3889
-6868 7123 -11626 9757 -1833 1015 -3863 1968 -5954 2795 -323 128 -778 303
-783 302 -2 0 -73 -27 -158 -60z m372 -658 c2342 -909 4588 -1965 6583 -3094
2736 -1548 5164 -3300 7286 -5258 671 -620 1502 -1456 2115 -2129 875 -963
1711 -1999 2468 -3060 110 -153 168 -244 173 -268 13 -65 9 -2127 -5 -2507
-42 -1152 -97 -1995 -193 -2960 -699 -7032 -3169 -13482 -7388 -19300 l-152
-210 -3267 -441 c-1797 -243 -4294 -580 -5549 -749 l-2282 -308 -5548 727
c-5197 682 -5549 730 -5565 750 -47 57 -387 523 -564 771 -1480 2071 -2736
4285 -3761 6625 -1786 4077 -2868 8559 -3242 13425 -92 1192 -136 2238 -147
3505 l-5 665 132 190 c689 994 1320 1813 2060 2675 1060 1236 2250 2424 3524
3519 3170 2725 6962 4996 11450 6856 488 202 1633 653 1662 655 6 0 103 -36
215 -79z"/>
<path d="M20449 44188 c0 -51 -15 -505 -33 -1008 -18 -503 -29 -918 -24 -921
9 -6 688 -29 858 -29 136 0 217 12 320 46 312 104 501 396 540 834 46 510
-114 897 -435 1055 -77 38 -151 59 -265 75 -64 9 -758 40 -907 40 l-53 0 -1
-92z m792 -279 c166 -15 254 -51 329 -136 48 -55 84 -129 105 -215 22 -91 30
-301 16 -447 -27 -275 -98 -429 -229 -495 -86 -43 -140 -49 -406 -44 -135 2
-248 7 -251 10 -5 5 32 1154 41 1276 l6 74 141 -7 c78 -3 190 -10 248 -16z"/>
<path d="M18055 44075 c-125 -22 -228 -55 -335 -107 -90 -43 -117 -62 -186
-132 -53 -53 -90 -100 -107 -138 -149 -317 11 -663 351 -757 99 -27 224 -40
507 -50 261 -10 320 -21 376 -68 98 -83 88 -246 -22 -352 -123 -120 -396 -169
-542 -98 -66 33 -149 119 -191 198 -16 29 -30 55 -31 57 -3 3 -366 -118 -374
-124 -2 -2 19 -50 47 -106 106 -215 254 -343 457 -393 100 -25 280 -23 413 4
474 98 712 321 713 667 1 172 -58 321 -171 435 -135 137 -331 189 -706 189
-274 0 -420 30 -471 96 -33 44 -42 117 -20 161 20 37 84 96 134 122 131 66
335 88 418 44 50 -26 116 -96 145 -153 12 -23 27 -40 33 -37 7 3 89 26 182 51
94 26 176 49 182 51 16 5 -20 108 -62 181 -68 117 -213 222 -360 259 -73 18
-280 19 -380 0z"/>
<path d="M23558 43873 c-30 -37 -334 -422 -676 -855 -472 -599 -617 -788 -604
-792 9 -3 98 -30 198 -60 99 -31 185 -56 191 -56 6 0 76 88 157 195 86 115
151 193 158 190 7 -3 181 -56 386 -119 205 -63 375 -116 378 -118 2 -3 12
-114 22 -248 l17 -244 205 -63 c113 -35 207 -62 210 -60 6 2 -175 2165 -181
2171 -2 2 -89 29 -194 61 -104 32 -195 59 -201 62 -7 2 -36 -26 -66 -64z m122
-480 c0 -16 9 -185 21 -376 11 -191 19 -358 17 -371 -3 -23 -6 -22 -263 57
-143 43 -261 80 -263 82 -4 4 472 635 481 635 4 0 7 -12 7 -27z"/>
<path d="M16295 43588 c-88 -39 -162 -73 -163 -74 -2 -1 119 -278 268 -614
149 -336 270 -613 268 -616 -3 -2 -274 181 -604 407 -329 227 -622 427 -650
446 l-52 34 -176 -78 c-97 -43 -176 -82 -176 -88 0 -7 806 -1829 816 -1843 2
-3 333 144 340 151 2 2 -115 271 -261 598 -146 327 -264 597 -262 601 1 3 286
-187 632 -424 347 -236 635 -432 641 -434 19 -8 369 152 369 169 0 24 -809
1837 -820 1836 -5 0 -82 -32 -170 -71z"/>
<path d="M24906 42499 c-362 -711 -456 -903 -445 -910 41 -26 318 -163 322
-159 2 3 75 145 162 315 320 629 437 856 440 853 2 -2 31 -351 66 -775 l64
-772 178 -92 c99 -50 183 -87 187 -83 14 14 910 1778 910 1791 0 9 -306 173
-324 173 -2 0 -98 -183 -212 -407 -321 -633 -408 -799 -411 -783 -1 8 -30 366
-64 795 -33 429 -61 781 -62 781 -4 3 -347 174 -349 174 -2 0 -210 -406 -462
-901z"/>
<path d="M14287 42628 c-168 -97 -176 -103 -163 -122 7 -12 235 -406 506 -876
271 -470 494 -856 494 -857 1 -1 82 43 179 99 167 97 176 103 163 123 -10 15
-884 1528 -981 1697 l-21 37 -177 -101z"/>
<path d="M28033 41768 c-56 -68 -101 -127 -100 -133 1 -5 99 -92 219 -192 119
-101 219 -187 222 -192 3 -5 -235 -295 -529 -646 -295 -351 -537 -641 -540
-645 -3 -4 63 -65 147 -135 108 -91 155 -125 164 -119 7 5 241 281 520 614
278 333 519 618 534 634 l29 29 213 -178 c117 -98 220 -184 229 -192 14 -11
29 2 120 112 57 68 104 128 104 133 0 9 -1214 1032 -1225 1032 -3 0 -51 -55
-107 -122z"/>
<path d="M12860 41704 c-91 -69 -166 -131 -168 -138 -3 -11 575 -2077 584
-2085 7 -8 342 253 338 263 -27 82 -134 441 -134 450 0 18 639 499 655 493 11
-5 61 -36 336 -208 l76 -47 171 130 c95 71 172 133 172 137 -1 5 -1842 1123
-1859 1128 -3 1 -80 -55 -171 -123z m660 -626 c157 -101 285 -188 285 -193 0
-4 -97 -82 -215 -171 -143 -109 -217 -159 -221 -151 -9 16 -229 734 -229 747
0 12 8 7 380 -232z"/>
<path d="M11580 40564 c-298 -58 -666 -410 -735 -704 -53 -231 45 -467 247
-587 81 -49 203 -77 304 -70 147 10 257 57 589 251 266 156 345 175 439 109
24 -17 52 -50 69 -83 26 -49 28 -63 25 -130 -4 -103 -39 -170 -141 -277 -62
-65 -97 -92 -155 -121 -68 -33 -83 -37 -156 -36 -88 0 -169 23 -238 69 -20 14
-42 25 -47 25 -10 0 -251 -287 -251 -299 0 -12 126 -91 203 -126 192 -88 402
-84 587 10 193 99 440 354 530 547 60 129 77 278 45 403 -53 208 -226 391
-424 449 -70 21 -215 21 -295 0 -82 -21 -259 -106 -434 -210 -213 -127 -303
-167 -379 -172 -55 -4 -69 -1 -102 21 -42 28 -71 79 -71 124 0 122 134 304
282 384 53 28 73 34 128 34 54 0 77 -6 135 -35 39 -18 73 -34 77 -34 14 -2
270 286 265 298 -10 25 -144 107 -217 133 -74 25 -216 39 -280 27z"/>
<path d="M28990 39848 l-715 -718 540 -540 c297 -297 545 -540 550 -540 6 0
62 52 125 115 l115 115 -403 403 -402 402 198 198 197 197 360 -360 360 -360
120 120 120 120 -360 360 -360 360 160 160 160 160 387 -387 388 -388 120 120
120 120 -533 530 -532 531 -715 -718z"/>
<path d="M20364 40393 c-18 -3 -58 -109 -288 -769 -147 -421 -266 -767 -264
-768 2 -2 73 -1 159 2 l156 4 53 167 c29 91 57 171 62 177 7 9 393 28 592 29
16 0 34 -33 91 -168 40 -93 75 -168 78 -168 4 1 71 1 150 1 78 0 148 4 156 9
10 7 -56 166 -312 747 l-326 739 -143 1 c-79 1 -152 0 -164 -3z m269 -629 c59
-143 107 -265 107 -270 0 -10 -398 -29 -408 -20 -3 4 137 452 174 555 3 8 8
10 13 5 4 -5 56 -126 114 -270z"/>
<path d="M19226 40334 c-71 -13 -131 -25 -133 -28 -3 -2 34 -226 82 -496 48
-270 85 -493 83 -495 -2 -2 -177 191 -388 431 -211 239 -389 439 -395 444 -8
7 -59 1 -151 -16 -76 -14 -140 -27 -142 -29 -3 -3 257 -1487 262 -1492 3 -3
267 45 271 49 1 2 -35 215 -81 473 -46 259 -83 476 -81 484 1 8 175 -180 386
-417 212 -238 390 -432 396 -432 16 0 287 49 290 52 3 5 -260 1486 -265 1491
-3 2 -63 -6 -134 -19z"/>
<path d="M21637 39608 c-71 -403 -130 -740 -133 -748 -3 -13 21 -20 132 -39
74 -13 137 -21 139 -19 3 2 43 219 89 482 46 262 86 479 88 482 3 2 101 -238
218 -533 117 -296 217 -540 221 -543 11 -8 289 -53 294 -48 9 9 264 1483 257
1489 -8 7 -263 52 -267 47 -1 -2 -39 -214 -84 -473 -45 -258 -86 -481 -90
-495 l-9 -25 -10 25 c-5 14 -103 261 -217 550 -113 288 -208 526 -209 528 -4
3 -264 52 -280 52 -7 0 -60 -279 -139 -732z"/>
<path d="M17470 39909 c-74 -27 -136 -51 -137 -53 -2 -2 64 -187 146 -413 191
-524 213 -595 214 -663 0 -101 -51 -167 -173 -223 -75 -34 -185 -47 -243 -28
-68 23 -113 65 -151 143 -20 40 -110 276 -201 523 -111 304 -168 449 -177 447
-40 -9 -268 -96 -268 -102 0 -5 70 -201 156 -437 177 -488 248 -646 323 -726
120 -127 287 -165 492 -113 296 75 473 204 529 382 27 90 25 161 -9 295 -27
108 -350 1019 -361 1018 -3 0 -66 -23 -140 -50z"/>
<path d="M24057 39663 c-20 -54 -137 -376 -260 -715 l-224 -616 140 -51 c77
-28 142 -50 144 -47 2 2 114 307 249 677 134 371 251 690 259 710 l14 37 -132
47 c-73 27 -137 50 -143 52 -7 2 -27 -38 -47 -94z"/>
<path d="M24475 38803 c-187 -368 -340 -672 -340 -678 0 -5 54 -38 121 -72
l121 -62 224 440 c197 386 225 437 231 412 4 -15 26 -260 48 -543 22 -283 44
-532 48 -553 7 -37 11 -40 139 -107 l132 -69 164 322 c91 177 246 483 346 679
l182 357 -120 61 c-66 33 -125 60 -129 60 -5 0 -14 -12 -21 -27 -62 -139 -446
-873 -448 -858 -2 11 -21 252 -43 535 -21 283 -42 543 -45 577 l-6 62 -125 66
c-68 36 -128 65 -132 65 -4 0 -161 -300 -347 -667z"/>
<path d="M15590 39076 c-230 -68 -441 -232 -527 -406 -53 -108 -73 -190 -73
-310 0 -122 27 -235 85 -358 58 -122 114 -200 212 -292 146 -138 263 -190 444
-198 95 -4 130 -1 200 17 273 69 527 279 652 539 l40 82 -148 258 c-81 141
-150 260 -154 264 -5 6 -540 -296 -561 -318 -5 -5 17 -53 52 -116 l62 -107 30
18 c17 10 86 50 153 89 l122 71 50 -87 50 -87 -30 -55 c-65 -123 -180 -229
-294 -272 -46 -18 -80 -23 -150 -23 -82 0 -97 3 -158 33 -36 18 -92 56 -122
84 -71 64 -165 207 -207 312 -28 72 -32 93 -32 181 -1 92 2 105 30 166 76 160
274 273 434 248 50 -8 140 -50 161 -75 9 -11 30 3 101 64 49 42 102 87 116
100 l27 22 -51 48 c-132 123 -326 165 -514 108z"/>
<path d="M30430 38364 c-448 -325 -815 -594 -815 -597 0 -3 50 -74 110 -157
61 -84 113 -157 116 -162 3 -5 114 69 245 164 131 96 244 177 251 181 10 6
471 -57 478 -65 1 -2 -96 -228 -216 -502 -121 -274 -219 -503 -219 -508 0 -12
288 -412 299 -416 4 -1 124 301 266 673 143 371 262 680 265 685 4 6 211 -19
539 -65 294 -42 536 -74 538 -71 6 6 -307 436 -318 436 -16 0 -1144 130 -1177
135 -32 6 -20 16 333 272 l366 265 -24 32 c-13 17 -65 88 -116 158 -51 70 -96
129 -99 131 -4 2 -374 -263 -822 -589z"/>
<path d="M9235 38064 c-253 -349 -465 -642 -472 -652 -11 -15 3 -28 122 -115
74 -54 138 -96 143 -93 4 2 84 110 177 240 94 129 175 234 180 232 6 -2 294
-210 640 -461 347 -252 651 -473 676 -491 l45 -33 112 154 c62 85 114 160 117
167 2 8 -245 193 -651 488 -360 261 -666 484 -680 495 l-24 20 174 240 c96
131 173 242 170 246 -4 7 -238 179 -259 191 -5 3 -217 -280 -470 -628z"/>
<path d="M25935 37974 c-251 -333 -455 -607 -453 -609 2 -2 126 -95 275 -207
353 -265 438 -308 616 -308 196 0 404 126 567 342 196 260 259 499 189 711
-47 140 -122 218 -459 471 -140 106 -260 195 -267 199 -8 5 -171 -204 -468
-599z m833 -8 c69 -73 92 -123 92 -207 0 -93 -31 -174 -114 -298 -96 -145
-221 -270 -310 -312 -125 -59 -198 -35 -430 137 -89 66 -126 100 -122 110 3 8
139 192 303 408 l297 394 116 -88 c64 -49 140 -114 168 -144z"/>
<path d="M14183 38153 c-88 -74 -101 -88 -90 -102 6 -9 149 -180 318 -381 168
-201 308 -371 313 -377 4 -7 -247 73 -559 178 -557 188 -566 190 -588 172 -84
-67 -197 -167 -197 -174 0 -7 897 -1086 951 -1143 17 -19 19 -18 86 37 37 31
86 72 107 90 l39 34 -317 378 c-174 208 -315 379 -313 381 2 2 238 -75 525
-170 287 -96 536 -177 552 -181 27 -6 39 0 102 52 39 32 91 76 115 98 l43 40
-483 574 c-265 316 -486 576 -492 577 -5 2 -56 -35 -112 -83z"/>
<path d="M27605 37244 c-143 -30 -291 -119 -431 -259 -168 -168 -264 -369
-264 -554 0 -304 260 -632 576 -727 91 -28 258 -26 354 4 255 80 510 321 604
572 87 233 39 478 -134 687 -193 233 -444 331 -705 277z m286 -290 c69 -20
136 -63 191 -122 58 -62 83 -105 103 -176 42 -145 -11 -297 -157 -452 -207
-218 -391 -278 -584 -190 -72 33 -167 128 -202 203 -24 52 -27 69 -27 168 0
104 2 114 33 178 38 78 130 194 199 253 159 135 302 180 444 138z"/>
<path d="M31737 36631 c-482 -269 -880 -491 -883 -494 -7 -6 166 -327 176
-327 3 0 262 142 574 315 313 174 571 314 573 311 2 -2 -165 -306 -371 -674
-207 -369 -376 -673 -376 -676 0 -15 193 -357 200 -354 4 2 404 223 888 492
l882 488 -24 42 c-13 22 -54 95 -91 161 -36 66 -68 121 -69 122 -1 2 -267
-144 -590 -323 -323 -179 -589 -324 -591 -322 -2 2 172 313 386 691 l389 689
-96 174 c-53 96 -97 174 -98 173 0 0 -396 -220 -879 -488z"/>
<path d="M8365 36784 c-54 -97 -93 -179 -89 -184 5 -4 243 -137 529 -295 582
-322 680 -380 746 -442 120 -112 124 -272 13 -455 -51 -84 -113 -144 -182
-176 -48 -23 -71 -27 -142 -27 -83 0 -88 1 -200 56 -63 31 -351 187 -640 347
-288 160 -525 290 -526 289 -10 -11 -194 -350 -192 -352 15 -15 1017 -564
1132 -621 202 -99 278 -125 396 -131 301 -16 526 162 721 572 66 138 92 237
93 355 1 114 -15 182 -62 273 -60 116 -143 193 -339 315 -45 29 -322 185 -615
348 -293 163 -536 298 -539 300 -4 2 -51 -75 -104 -172z"/>
<path d="M12590 36674 c-47 -53 -93 -106 -103 -119 -18 -23 -15 -28 345 -749
200 -399 365 -726 368 -726 3 0 53 52 110 116 l103 116 -26 51 c-14 29 -53
102 -86 164 l-60 112 201 223 c110 123 204 225 209 226 8 3 121 -38 295 -106
l52 -21 110 123 111 123 -753 277 c-414 153 -762 279 -772 281 -14 3 -43 -22
-104 -91z m543 -377 c141 -56 257 -104 257 -108 0 -4 -61 -75 -136 -158 l-137
-152 -21 38 c-50 89 -256 481 -256 488 0 9 -25 18 293 -108z"/>
<path d="M20224 36218 c-4 -7 -11 -93 -16 -192 -4 -100 -12 -222 -18 -273 -5
-50 -15 -271 -20 -490 -6 -219 -15 -425 -21 -458 -5 -33 -14 -217 -20 -410
l-10 -350 -27 -27 c-26 -25 -35 -27 -174 -37 -81 -6 -190 -11 -243 -11 -63 0
-108 -5 -132 -15 -20 -9 -77 -18 -127 -22 -50 -3 -104 -12 -119 -20 -16 -8
-62 -15 -105 -16 l-76 -2 -10 36 c-6 20 -16 42 -22 50 -6 8 -15 36 -19 64 -4
27 -13 61 -20 75 -7 14 -16 48 -20 75 -4 28 -16 70 -26 94 -10 24 -19 63 -19
88 0 28 -7 54 -20 71 -11 15 -23 50 -26 77 -4 28 -12 61 -19 75 -7 14 -16 52
-20 85 -5 33 -16 76 -26 95 -9 19 -20 55 -24 80 -4 25 -13 56 -20 70 -7 14
-16 52 -20 85 -4 33 -11 65 -16 71 -5 6 -14 37 -20 69 -6 32 -16 68 -24 79 -7
12 -15 44 -18 71 -3 28 -12 63 -21 79 -8 16 -18 52 -21 80 -7 54 -36 110 -60
120 -26 9 -219 -6 -254 -20 -19 -8 -84 -19 -143 -23 -60 -5 -115 -14 -122 -21
-8 -6 -58 -16 -112 -21 -53 -6 -110 -17 -125 -25 -15 -7 -42 -14 -58 -14 -17
0 -48 -6 -68 -14 -21 -8 -76 -22 -123 -31 -47 -10 -99 -23 -117 -31 -17 -8
-45 -14 -62 -14 -17 0 -48 -9 -68 -20 -21 -11 -48 -20 -61 -20 -13 0 -38 -7
-55 -15 -41 -19 -216 -75 -236 -75 -9 0 -25 -7 -35 -15 -11 -8 -26 -15 -34
-15 -7 0 -38 -11 -67 -25 -30 -13 -67 -28 -82 -31 -16 -4 -37 -13 -48 -20 -11
-8 -29 -14 -41 -14 -12 0 -32 -9 -46 -19 -13 -11 -38 -23 -54 -27 -16 -4 -42
-16 -59 -26 -16 -10 -40 -18 -52 -18 -12 0 -30 -8 -40 -19 -10 -10 -31 -21
-47 -25 -16 -4 -41 -16 -54 -27 -14 -10 -31 -19 -39 -19 -8 0 -26 -9 -40 -20
-14 -11 -31 -20 -38 -20 -7 0 -18 -7 -25 -14 -6 -8 -28 -20 -47 -27 -20 -6
-50 -21 -67 -33 -18 -12 -68 -39 -111 -61 -44 -22 -86 -48 -93 -57 -7 -10 -20
-18 -29 -18 -9 0 -39 -15 -67 -34 -28 -18 -62 -37 -76 -41 -14 -4 -33 -16 -43
-26 -10 -11 -24 -19 -31 -19 -7 0 -24 -10 -38 -22 -14 -13 -45 -35 -69 -50
-24 -15 -64 -43 -90 -62 -25 -18 -55 -37 -68 -41 -23 -7 -41 -20 -84 -62 -13
-12 -35 -25 -50 -28 -15 -4 -27 -13 -27 -21 0 -8 -4 -14 -10 -14 -5 0 -18 -8
-28 -18 -10 -10 -34 -28 -55 -41 -50 -31 -56 -61 -23 -109 14 -21 26 -43 26
-48 0 -6 8 -19 19 -28 10 -9 21 -29 24 -44 3 -15 16 -31 29 -37 15 -7 24 -20
26 -40 2 -16 7 -32 10 -35 13 -10 62 -86 62 -97 0 -5 11 -22 25 -37 14 -15 25
-33 25 -41 0 -8 24 -50 54 -93 29 -44 59 -95 65 -115 7 -19 18 -38 26 -41 8
-3 15 -12 15 -19 0 -8 9 -24 20 -37 11 -13 20 -33 20 -46 0 -13 9 -28 20 -34
11 -6 20 -17 20 -25 0 -8 11 -26 25 -41 14 -15 25 -32 25 -39 0 -7 9 -22 20
-35 11 -13 20 -31 20 -41 0 -10 8 -24 19 -31 10 -7 22 -24 26 -38 4 -14 16
-33 26 -43 11 -10 19 -22 19 -28 0 -15 79 -119 91 -119 6 0 8 -11 4 -29 -4
-20 -2 -30 9 -34 8 -3 29 -35 45 -70 16 -35 37 -69 45 -76 9 -8 16 -24 16 -37
0 -14 8 -25 20 -29 11 -3 20 -12 20 -18 0 -7 6 -24 14 -39 12 -23 12 -30 -4
-56 -10 -17 -28 -33 -39 -37 -12 -3 -21 -10 -21 -15 0 -5 -9 -11 -19 -15 -10
-3 -45 -30 -76 -59 -31 -30 -76 -61 -101 -71 -24 -9 -44 -20 -44 -25 0 -5 -19
-22 -42 -39 -69 -50 -185 -151 -252 -218 -34 -35 -68 -63 -74 -63 -7 0 -17
-11 -23 -23 -6 -13 -25 -32 -42 -42 -18 -11 -82 -71 -144 -134 -62 -64 -121
-125 -133 -137 -11 -12 -20 -24 -20 -29 0 -4 -37 -45 -82 -91 -45 -46 -87 -92
-92 -102 -5 -9 -18 -23 -28 -30 -10 -7 -18 -19 -18 -26 0 -7 -15 -28 -33 -47
-18 -19 -36 -42 -40 -51 -3 -10 -13 -18 -22 -18 -9 0 -15 -9 -15 -23 0 -26
-37 -81 -69 -104 -12 -8 -21 -20 -21 -26 -1 -7 -9 -23 -20 -35 -18 -21 -25
-23 -70 -17 -27 4 -52 11 -55 15 -3 5 -34 25 -70 45 -36 20 -65 40 -65 44 0 5
-17 16 -37 25 -48 21 -82 41 -96 55 -6 6 -18 11 -27 11 -9 0 -27 11 -40 25
-13 14 -48 39 -79 56 -30 17 -61 37 -69 45 -7 8 -20 14 -28 14 -8 0 -22 8 -33
19 -10 10 -43 30 -74 45 -31 14 -61 35 -67 46 -6 11 -20 20 -30 20 -11 0 -28
8 -38 18 -9 9 -28 23 -42 30 -71 37 -86 47 -98 64 -7 10 -23 18 -35 18 -22 0
-97 47 -97 61 0 5 -10 9 -22 9 -28 0 -42 10 -51 31 -3 10 -23 22 -44 29 -21 7
-54 24 -73 40 -19 15 -50 34 -67 44 -18 9 -33 20 -33 25 0 5 -11 12 -25 15
-14 4 -25 10 -25 15 0 5 -13 12 -30 16 -16 4 -36 15 -43 26 -8 10 -28 22 -45
25 -25 5 -35 1 -55 -20 -13 -14 -28 -26 -32 -26 -14 0 -44 -45 -45 -68 0 -13
-21 -43 -55 -77 -30 -30 -55 -58 -55 -64 0 -5 -18 -32 -40 -60 -22 -28 -40
-55 -40 -60 0 -5 -20 -35 -45 -67 -25 -31 -45 -61 -45 -64 0 -4 -9 -17 -20
-30 -11 -13 -20 -29 -20 -36 0 -7 -9 -18 -20 -24 -11 -6 -20 -20 -20 -30 0
-11 -8 -28 -17 -38 -10 -10 -31 -46 -48 -80 -16 -35 -35 -68 -42 -73 -7 -6
-26 -41 -43 -77 -17 -37 -35 -74 -41 -82 -5 -8 -15 -28 -24 -45 -8 -16 -19
-37 -24 -45 -5 -8 -24 -45 -41 -82 -17 -36 -37 -72 -45 -78 -8 -7 -15 -25 -15
-40 0 -15 -9 -35 -20 -45 -11 -10 -20 -27 -20 -37 0 -23 -37 -114 -61 -148 -9
-14 -20 -43 -24 -63 -4 -21 -13 -43 -20 -50 -6 -7 -18 -36 -24 -64 -7 -29 -19
-57 -27 -64 -8 -6 -14 -22 -14 -36 0 -13 -8 -40 -19 -61 -10 -20 -24 -61 -31
-90 -6 -28 -16 -54 -20 -57 -5 -3 -11 -24 -15 -48 -4 -23 -16 -56 -26 -73 -10
-17 -19 -44 -19 -60 0 -16 -8 -45 -19 -64 -10 -19 -21 -56 -25 -81 -4 -26 -13
-55 -21 -65 -8 -11 -15 -36 -15 -57 0 -21 -9 -57 -20 -81 -10 -24 -23 -70 -29
-104 -5 -33 -14 -69 -20 -80 -5 -10 -13 -43 -17 -73 -3 -30 -12 -61 -20 -69
-7 -8 -17 -49 -22 -91 -5 -42 -17 -91 -25 -110 -8 -19 -17 -62 -20 -97 -3 -34
-13 -74 -22 -88 -10 -16 -19 -56 -22 -102 -3 -43 -11 -88 -18 -102 -7 -14 -16
-52 -20 -85 -8 -69 -19 -95 -40 -95 -8 0 -15 -4 -15 -10 0 -5 6 -10 13 -10 8
0 22 -9 31 -19 10 -11 32 -23 50 -26 17 -4 41 -14 54 -22 13 -8 55 -18 95 -22
40 -5 86 -16 102 -25 17 -9 49 -16 72 -16 23 0 65 -9 93 -20 28 -11 73 -20
100 -20 35 0 55 -5 68 -18 13 -13 41 -21 91 -26 40 -3 85 -13 100 -20 15 -8
56 -18 92 -22 35 -3 87 -15 114 -25 28 -11 65 -19 83 -19 18 0 49 -7 69 -15
20 -8 68 -20 107 -26 39 -6 82 -17 96 -24 14 -7 51 -15 83 -19 32 -3 72 -13
87 -21 16 -8 44 -15 63 -15 49 0 129 -29 154 -55 20 -23 21 -31 16 -160 -3
-94 -10 -154 -23 -193 -17 -53 -18 -98 -16 -597 2 -463 4 -546 18 -580 9 -25
18 -91 22 -174 4 -76 12 -145 20 -160 7 -14 19 -73 26 -131 7 -58 19 -117 26
-132 21 -40 4 -73 -43 -88 -21 -6 -51 -18 -68 -25 -16 -7 -54 -16 -84 -20 -30
-4 -68 -16 -85 -26 -19 -12 -50 -19 -79 -19 -26 0 -67 -8 -90 -19 -23 -10 -66
-22 -96 -25 -30 -4 -67 -14 -82 -22 -16 -8 -57 -17 -91 -21 -35 -3 -72 -12
-83 -19 -11 -7 -45 -16 -75 -20 -30 -3 -65 -12 -77 -20 -12 -8 -48 -16 -80
-20 -32 -3 -78 -14 -103 -24 -25 -10 -70 -21 -100 -25 -30 -4 -66 -13 -80 -20
-14 -7 -54 -15 -89 -19 -36 -3 -72 -12 -80 -20 -9 -7 -43 -16 -77 -20 -34 -4
-78 -16 -100 -26 -22 -12 -58 -20 -86 -20 -93 0 -124 -77 -78 -198 12 -32 20
-76 20 -114 0 -37 5 -68 13 -77 8 -9 20 -54 27 -101 7 -47 19 -94 26 -105 8
-11 14 -45 14 -79 0 -40 5 -65 16 -77 9 -10 19 -46 24 -82 4 -35 15 -75 23
-88 8 -13 18 -44 22 -68 4 -24 16 -64 27 -89 11 -25 20 -62 20 -83 0 -21 6
-43 13 -49 8 -7 17 -28 21 -49 6 -36 34 -118 59 -176 8 -16 19 -56 25 -87 6
-31 17 -62 25 -68 7 -6 17 -30 20 -53 4 -23 13 -53 20 -67 27 -50 65 -143 65
-157 0 -8 16 -49 36 -91 20 -42 42 -94 50 -115 7 -21 20 -48 29 -60 8 -12 15
-32 15 -45 0 -13 9 -35 20 -49 11 -14 20 -36 20 -48 0 -12 7 -29 16 -36 9 -7
27 -38 41 -69 14 -30 36 -78 49 -107 13 -28 24 -56 24 -61 0 -5 7 -15 15 -22
8 -7 20 -30 25 -51 6 -22 15 -39 19 -39 5 0 15 -15 22 -32 7 -18 27 -58 45
-88 17 -30 35 -70 39 -87 3 -18 11 -33 16 -33 5 0 17 -17 27 -37 9 -21 25 -45
35 -55 9 -10 17 -27 17 -37 0 -11 5 -23 10 -26 6 -4 17 -21 25 -38 15 -32 21
-43 62 -108 13 -19 23 -45 23 -57 0 -12 8 -26 18 -31 10 -5 31 -36 47 -68 16
-32 33 -62 37 -68 4 -5 23 -30 42 -55 19 -25 46 -69 60 -97 14 -29 29 -53 34
-53 6 0 13 -15 16 -34 4 -19 14 -37 22 -40 31 -12 71 -6 89 14 10 11 27 20 37
20 10 0 29 11 42 25 13 14 34 25 49 25 13 0 27 7 31 15 3 8 16 20 28 25 13 6
41 21 63 35 22 13 51 30 65 36 14 7 34 21 45 30 17 15 63 41 173 98 15 7 36
21 47 31 11 9 27 20 35 24 15 7 29 15 90 52 19 12 46 25 60 29 14 4 31 16 38
26 7 11 17 19 22 19 5 0 35 16 66 36 31 20 71 40 88 45 17 5 35 19 41 31 6 13
21 24 35 26 14 2 34 12 45 22 11 11 42 29 68 40 27 12 57 30 68 41 10 10 30
19 44 19 14 0 25 5 25 10 0 6 12 16 28 23 15 6 36 20 46 29 11 10 24 18 29 18
5 0 20 9 34 20 14 11 36 20 49 20 13 0 27 8 32 17 9 15 24 25 102 65 14 7 30
18 35 25 6 7 25 16 42 19 30 6 37 1 105 -69 40 -42 95 -105 121 -139 26 -35
138 -154 247 -264 129 -130 200 -209 200 -222 0 -17 -8 -22 -47 -27 -27 -3
-61 -12 -78 -21 -16 -8 -55 -18 -85 -23 -30 -5 -68 -16 -85 -25 -16 -9 -41
-16 -55 -16 -14 0 -41 -9 -61 -19 -20 -11 -54 -23 -75 -27 -22 -3 -46 -12 -54
-19 -8 -7 -34 -16 -57 -20 -23 -3 -47 -13 -53 -21 -7 -7 -28 -16 -49 -20 -20
-4 -50 -15 -67 -25 -17 -11 -37 -19 -43 -19 -11 0 -42 -13 -167 -71 -22 -11
-44 -19 -48 -19 -4 0 -19 -9 -33 -20 -14 -11 -33 -20 -43 -20 -10 0 -29 -9
-43 -20 -14 -11 -32 -20 -40 -20 -8 0 -26 -9 -40 -20 -14 -11 -32 -20 -40 -20
-8 0 -25 -8 -38 -19 -13 -10 -35 -22 -49 -26 -14 -4 -33 -16 -43 -26 -10 -11
-22 -19 -28 -19 -19 0 -254 -142 -324 -195 -10 -8 -24 -15 -30 -16 -5 0 -30
-16 -55 -35 -25 -19 -56 -39 -70 -46 -14 -7 -46 -29 -71 -50 -26 -21 -52 -38
-57 -38 -6 0 -15 -6 -19 -14 -4 -7 -19 -19 -33 -26 -25 -13 -33 -19 -78 -60
-21 -19 -24 -19 -45 -5 -28 19 -76 19 -96 0 -9 -9 -56 -47 -106 -86 -49 -38
-94 -76 -100 -82 -5 -7 -32 -28 -60 -47 -27 -19 -54 -39 -60 -45 -13 -15 -152
-126 -185 -147 -14 -9 -50 -39 -80 -67 -30 -28 -58 -51 -61 -51 -6 0 -154
-116 -194 -153 -11 -10 -58 -48 -105 -85 -47 -37 -91 -79 -98 -92 -9 -18 -12
-53 -9 -120 5 -86 9 -102 43 -170 26 -51 60 -96 104 -139 l65 -64 315 6 c173
4 341 11 374 16 69 11 1357 37 1761 35 447 -3 1226 -24 1270 -35 22 -5 127
-14 233 -19 106 -5 219 -16 250 -24 31 -8 123 -19 204 -25 81 -6 157 -15 167
-21 11 -5 73 -14 138 -20 66 -5 132 -16 148 -24 17 -7 70 -17 118 -20 48 -3
98 -12 110 -20 12 -8 56 -17 97 -21 41 -4 87 -13 101 -20 14 -8 54 -17 90 -21
35 -4 77 -13 93 -21 16 -8 58 -19 93 -24 36 -5 74 -16 86 -24 12 -8 37 -15 57
-15 19 0 51 -8 70 -19 19 -10 58 -21 85 -25 28 -4 59 -14 71 -21 12 -7 39 -17
60 -20 21 -4 53 -16 70 -26 17 -11 44 -19 60 -19 16 0 43 -9 59 -20 17 -11 44
-20 61 -20 17 0 42 -8 55 -19 13 -10 43 -22 66 -26 23 -3 47 -13 53 -20 6 -8
26 -17 43 -20 18 -4 46 -15 62 -25 17 -10 45 -21 63 -25 17 -3 32 -11 32 -16
0 -5 20 -14 45 -20 24 -6 50 -17 56 -25 6 -8 19 -14 29 -14 9 0 28 -9 42 -19
13 -11 38 -23 54 -27 16 -4 40 -15 53 -26 13 -10 32 -18 42 -18 10 0 21 -5 25
-11 3 -6 25 -19 49 -29 24 -10 46 -23 49 -28 3 -6 20 -13 36 -17 17 -4 30 -11
30 -16 0 -5 17 -16 37 -24 21 -9 40 -19 43 -24 5 -9 44 -30 100 -57 19 -9 39
-22 43 -30 4 -8 13 -14 19 -14 6 0 43 -21 82 -47 39 -25 89 -58 111 -72 22
-14 46 -32 53 -38 7 -7 17 -13 21 -13 4 0 45 -29 91 -65 46 -36 86 -65 90 -65
4 0 19 -10 33 -22 14 -13 47 -41 73 -63 26 -22 59 -50 72 -62 14 -13 28 -23
32 -23 4 0 29 -20 56 -45 27 -24 52 -45 57 -45 4 0 7 -7 7 -15 0 -10 10 -15
30 -15 19 0 30 5 30 14 0 7 11 21 25 30 14 9 38 28 53 41 15 14 77 64 138 112
250 197 270 211 489 351 44 28 87 56 95 62 8 6 29 18 47 28 69 37 168 96 173
103 3 3 16 10 30 14 14 4 36 16 49 26 13 11 29 19 36 19 7 0 24 9 38 20 14 11
32 20 40 20 8 0 25 9 39 19 13 11 38 23 54 27 16 4 36 12 44 19 8 7 26 16 40
20 14 4 36 16 49 26 13 11 34 19 47 19 12 0 29 6 37 14 8 8 32 19 55 25 23 7
44 16 47 21 3 5 30 16 60 24 30 9 57 21 60 26 3 6 14 10 23 10 9 0 40 11 67
25 28 13 62 25 76 25 15 0 32 7 39 15 7 8 28 17 49 20 20 4 54 15 76 25 22 10
58 22 80 26 22 4 49 13 60 20 11 7 40 16 65 20 25 3 56 13 68 21 13 8 49 17
80 20 32 3 73 14 92 25 19 10 51 18 70 18 19 1 53 9 75 20 22 11 57 19 78 20
21 0 63 9 95 20 31 11 89 23 127 27 39 3 82 12 97 19 15 8 62 17 105 20 43 4
93 13 111 20 18 7 86 18 151 24 66 5 132 15 148 21 15 6 87 15 158 20 72 5
162 16 200 24 39 8 156 19 260 24 105 6 205 14 224 20 38 12 824 33 1266 35
427 1 1680 -23 1755 -35 36 -5 205 -12 376 -15 l311 -7 34 24 c77 53 102 84
163 199 26 50 29 64 30 163 l1 109 -57 51 c-31 29 -73 63 -93 77 -36 25 -76
57 -105 83 -33 31 -139 117 -145 117 -3 0 -14 8 -25 18 -23 20 -36 31 -110 93
-30 25 -62 50 -71 55 -16 9 -85 64 -118 94 -9 9 -39 31 -66 50 -28 19 -54 40
-60 47 -5 6 -50 43 -100 82 -49 38 -98 77 -107 85 -23 21 -67 20 -97 0 -21
-15 -24 -15 -41 2 -26 25 -55 48 -113 85 -26 17 -63 45 -81 61 -18 16 -47 37
-64 46 -17 9 -65 41 -107 70 -42 28 -79 52 -83 52 -3 0 -35 20 -71 44 -36 24
-76 47 -88 51 -13 3 -23 10 -23 15 0 4 -17 15 -37 25 -40 17 -83 40 -148 80
-22 13 -51 29 -65 36 -14 6 -32 15 -40 20 -8 5 -26 14 -40 20 -14 6 -32 15
-40 20 -8 5 -26 14 -40 20 -104 47 -137 62 -150 70 -8 5 -22 12 -30 15 -8 3
-38 16 -66 30 -28 13 -59 24 -69 24 -10 0 -26 7 -36 16 -10 9 -37 20 -61 25
-23 6 -50 16 -58 23 -8 8 -33 17 -55 21 -22 3 -47 12 -55 20 -8 7 -32 16 -54
19 -21 4 -55 16 -75 27 -20 10 -49 19 -66 19 -17 0 -41 7 -53 16 -12 8 -48 19
-79 24 -32 5 -71 16 -88 24 -16 9 -52 18 -78 21 -45 6 -48 8 -45 33 2 17 14
34 35 47 18 11 32 23 33 27 0 7 57 68 250 264 65 67 126 137 135 155 9 19 56
71 103 117 79 75 90 82 117 76 17 -3 37 -12 46 -20 8 -8 20 -14 26 -14 5 0 18
-9 28 -20 10 -11 29 -20 42 -20 15 0 27 -8 34 -24 8 -16 22 -26 44 -29 19 -3
68 -29 110 -59 42 -29 84 -57 93 -63 10 -5 28 -17 42 -26 14 -9 37 -20 50 -24
14 -4 28 -12 31 -17 6 -9 51 -36 107 -63 17 -8 32 -19 32 -24 0 -5 16 -15 36
-21 46 -16 177 -90 187 -107 4 -7 14 -13 21 -13 7 0 24 -8 37 -19 13 -10 52
-33 86 -50 34 -18 64 -38 66 -45 3 -8 17 -16 31 -20 14 -3 42 -17 62 -31 20
-14 44 -25 54 -25 9 0 34 -15 56 -33 21 -18 50 -38 64 -45 14 -7 43 -23 65
-36 53 -33 122 -66 134 -66 5 0 19 -13 31 -30 12 -16 29 -30 39 -30 10 0 30
-9 45 -21 32 -25 84 -23 100 6 11 21 29 50 58 94 10 14 24 40 33 56 8 17 31
50 50 75 19 25 38 52 41 60 27 68 52 111 66 116 11 3 18 15 18 29 0 13 8 31
17 40 17 18 40 56 67 113 8 17 20 32 25 32 6 0 11 16 11 35 0 29 5 37 25 45
17 7 25 17 25 34 0 14 9 33 19 43 10 10 23 35 29 55 6 21 19 50 30 65 10 15
31 53 46 83 14 30 30 62 35 70 5 8 14 26 20 40 6 14 15 32 20 40 6 8 35 68 66
132 30 64 60 120 65 123 6 3 10 16 10 29 0 12 7 31 15 42 8 10 15 28 15 39 0
11 11 36 23 55 13 19 27 49 31 65 4 17 13 37 21 45 7 8 15 31 19 51 4 21 13
42 21 49 8 7 15 26 15 43 0 16 11 44 24 62 14 17 28 49 31 71 4 21 14 46 22
55 7 9 17 34 20 55 3 22 11 46 18 54 7 8 15 35 19 60 4 25 15 59 26 75 11 17
20 41 20 55 0 14 9 42 20 63 11 20 20 50 20 66 0 15 8 39 19 52 10 13 16 30
14 36 -6 16 15 83 32 103 7 8 15 41 19 73 3 33 15 79 26 102 11 24 20 59 20
77 0 18 9 50 20 71 11 20 20 56 20 79 1 24 8 61 16 83 9 22 20 71 24 108 5 38
16 80 24 93 10 14 16 46 16 84 0 36 8 81 20 112 11 29 20 76 20 103 0 49 -1
51 -42 72 -24 12 -69 27 -101 32 -32 6 -63 14 -70 18 -6 4 -41 12 -77 19 -96
18 -201 44 -236 59 -17 7 -57 16 -90 20 -32 4 -79 15 -104 25 -25 10 -67 21
-93 25 -26 3 -63 13 -81 20 -18 8 -57 17 -87 21 -30 4 -72 15 -94 25 -22 10
-58 19 -80 19 -22 0 -50 7 -62 15 -12 8 -50 18 -85 22 -35 3 -85 14 -111 24
-26 11 -59 19 -72 19 -13 0 -47 9 -75 20 -28 11 -67 20 -88 20 -20 0 -75 16
-122 34 -81 33 -85 36 -82 63 2 15 9 37 16 48 7 11 16 63 19 115 4 52 13 115
21 140 8 25 19 108 25 185 6 77 16 156 23 175 10 27 13 158 13 575 0 478 -2
545 -17 585 -11 33 -17 86 -19 187 -3 152 3 173 46 173 12 0 28 7 35 15 6 7
33 17 58 20 26 4 61 11 77 16 17 5 64 17 105 25 41 8 92 21 113 29 20 8 60 15
87 15 31 0 64 8 87 20 21 11 55 20 76 20 21 0 59 9 85 19 26 11 76 22 111 25
36 3 75 13 88 21 13 9 54 18 91 22 39 3 75 12 85 22 12 10 44 17 90 19 49 3
79 10 95 23 13 10 49 20 80 24 31 3 75 12 97 20 22 7 69 16 104 19 36 3 72 12
80 19 9 7 44 26 78 42 61 30 78 45 48 45 -20 0 -32 33 -41 112 -4 34 -13 72
-19 83 -7 11 -16 51 -19 89 -4 37 -16 86 -26 107 -13 24 -20 58 -20 94 0 32
-6 65 -15 78 -8 13 -19 52 -24 87 -5 36 -16 83 -24 105 -8 22 -18 65 -20 97
-3 31 -12 67 -20 80 -8 12 -17 49 -21 81 -3 32 -15 74 -26 95 -11 20 -20 52
-20 70 0 19 -9 45 -20 59 -14 18 -20 41 -20 73 0 29 -6 52 -14 59 -8 7 -19 36
-25 64 -6 29 -18 66 -25 82 -8 17 -29 77 -47 135 -18 58 -38 119 -46 137 -7
17 -13 39 -13 49 0 9 -6 25 -13 33 -8 9 -26 52 -42 96 -15 44 -39 101 -52 127
-12 26 -23 56 -23 67 0 11 -7 26 -15 35 -8 8 -18 30 -22 48 -3 18 -14 44 -25
57 -10 13 -18 31 -18 41 0 9 -9 25 -20 35 -11 10 -20 26 -20 35 0 10 -9 28
-19 42 -11 13 -23 38 -27 54 -4 16 -13 35 -21 42 -7 7 -13 19 -13 26 0 7 -8
24 -19 37 -10 13 -23 40 -30 61 -7 20 -18 39 -26 42 -8 3 -17 21 -20 40 -4 19
-13 37 -21 40 -8 3 -28 34 -45 68 -36 76 -53 105 -102 177 -9 14 -24 40 -31
57 -8 17 -28 45 -45 63 -16 17 -35 47 -41 66 -6 20 -20 39 -30 45 -10 5 -30
32 -44 60 -15 28 -43 65 -62 82 -19 17 -47 55 -61 85 -29 59 -91 113 -130 113
-13 0 -35 -13 -50 -30 -14 -16 -36 -30 -49 -30 -12 0 -24 -6 -27 -13 -2 -7
-31 -26 -63 -42 -33 -16 -62 -34 -66 -41 -4 -6 -31 -24 -60 -39 -29 -15 -62
-36 -74 -46 -11 -10 -27 -19 -36 -19 -8 0 -23 -9 -33 -20 -10 -11 -22 -20 -27
-20 -6 0 -21 -9 -35 -20 -14 -11 -34 -20 -44 -20 -10 0 -23 -9 -29 -20 -6 -11
-17 -20 -25 -20 -7 0 -26 -10 -42 -22 -36 -30 -62 -46 -93 -59 -14 -5 -41 -25
-60 -43 -19 -19 -47 -36 -62 -40 -14 -3 -39 -17 -55 -29 -15 -13 -40 -27 -55
-31 -16 -3 -28 -10 -28 -15 0 -5 -25 -24 -56 -43 -30 -18 -72 -43 -92 -55 -20
-12 -53 -32 -72 -43 -103 -61 -199 -122 -229 -146 -14 -11 -44 -25 -65 -32
-34 -10 -43 -9 -68 9 -15 11 -28 24 -28 28 0 4 -10 18 -22 31 -29 31 -68 88
-68 100 0 9 -8 18 -84 105 -20 22 -57 67 -83 101 -65 83 -116 142 -195 227
-36 40 -85 92 -107 117 -59 65 -74 80 -132 130 -29 25 -82 73 -118 107 -36 34
-78 72 -92 85 -115 101 -145 125 -172 143 -18 11 -52 40 -77 64 -25 24 -61 50
-80 58 -19 9 -41 24 -48 34 -7 10 -18 19 -23 19 -6 0 -35 20 -66 45 -30 25
-61 45 -69 45 -7 0 -18 18 -24 39 -12 45 -3 78 35 123 14 16 25 36 25 44 0 8
6 17 14 20 8 3 17 17 21 32 4 15 15 35 26 45 10 10 19 24 19 31 0 8 7 19 15
26 8 7 15 20 15 29 0 9 19 44 43 77 47 66 69 103 91 150 9 17 22 34 31 37 8 4
15 17 15 30 0 13 9 32 20 42 11 10 20 24 20 31 0 7 8 19 19 26 10 7 22 24 26
38 4 14 16 33 26 43 11 10 19 26 19 36 0 10 9 26 20 36 11 10 20 26 20 35 0
10 7 23 15 30 8 7 15 20 15 30 0 10 7 23 16 30 8 8 22 27 29 44 26 56 54 100
70 108 8 5 15 18 15 29 0 10 11 29 25 41 14 12 25 31 26 42 0 12 16 41 34 66
19 25 41 60 49 78 8 17 19 32 25 32 5 0 15 15 21 34 6 19 18 40 26 46 7 7 14
20 14 29 0 10 11 27 25 39 14 12 25 31 25 43 0 23 -95 123 -127 133 -11 4 -28
15 -38 26 -10 11 -23 20 -29 20 -7 0 -31 18 -55 40 -23 22 -48 40 -55 40 -7 0
-21 9 -31 20 -10 11 -24 20 -31 20 -7 0 -18 9 -24 20 -6 11 -20 20 -31 20 -27
0 -57 16 -102 56 -20 19 -44 34 -52 34 -9 0 -18 6 -21 14 -3 8 -18 19 -32 25
-15 6 -47 25 -72 41 -25 16 -61 37 -80 46 -19 9 -37 19 -40 23 -3 3 -35 20
-71 38 -36 18 -72 39 -79 48 -7 8 -19 15 -27 15 -8 0 -28 11 -45 25 -16 14
-35 25 -43 25 -7 0 -18 7 -25 15 -7 8 -25 15 -41 15 -18 0 -34 8 -41 20 -8 12
-24 20 -39 20 -14 0 -36 11 -49 25 -14 15 -35 25 -51 25 -14 0 -32 7 -39 15
-7 8 -17 15 -22 15 -6 0 -24 6 -41 14 -137 61 -196 86 -207 86 -6 0 -23 9 -37
20 -14 11 -35 20 -45 20 -11 0 -37 8 -57 18 -45 23 -124 51 -174 61 -21 5 -45
15 -55 23 -9 9 -36 18 -60 21 -24 3 -51 12 -60 20 -9 8 -38 18 -63 21 -25 4
-62 16 -82 26 -20 11 -55 20 -77 20 -23 0 -57 8 -78 19 -20 10 -63 22 -95 25
-31 4 -64 14 -72 22 -10 10 -43 17 -93 21 -42 3 -87 11 -98 19 -12 7 -64 17
-115 23 -52 5 -107 16 -124 25 -19 10 -57 16 -105 16 -44 1 -92 7 -115 17 -39
15 -264 36 -296 27 -18 -5 -22 -14 -49 -114 -10 -36 -25 -83 -34 -105 -8 -22
-15 -54 -16 -70 0 -17 -7 -40 -15 -52 -8 -11 -17 -47 -21 -79 -3 -33 -15 -71
-25 -86 -12 -18 -19 -44 -19 -75 0 -31 -7 -60 -21 -82 -11 -18 -18 -39 -15
-46 6 -17 -10 -82 -30 -117 -8 -15 -18 -51 -21 -80 -3 -29 -11 -64 -18 -78 -7
-14 -16 -48 -20 -75 -5 -27 -16 -67 -26 -90 -10 -22 -19 -53 -19 -70 0 -16 -9
-48 -19 -70 -10 -23 -21 -66 -25 -97 -4 -31 -14 -64 -21 -74 -8 -11 -15 -36
-15 -57 0 -33 -23 -105 -49 -157 -11 -21 -116 -26 -145 -7 -13 9 -71 19 -139
26 -65 5 -130 17 -146 26 -23 11 -63 15 -163 15 -73 0 -176 5 -227 10 -111 12
-137 29 -146 94 -3 22 -9 221 -15 441 -5 220 -14 434 -20 475 -5 41 -14 260
-20 485 -6 226 -14 430 -20 455 -5 25 -9 92 -10 150 -1 166 23 150 -221 150
-150 0 -210 -3 -215 -12z m320 -140 c3 -24 8 -142 11 -263 3 -121 10 -242 15
-270 6 -27 15 -243 20 -480 6 -236 15 -455 20 -485 6 -30 15 -244 20 -475 5
-267 14 -458 24 -525 9 -68 17 -237 21 -485 3 -209 10 -409 16 -445 5 -36 16
-285 24 -555 8 -273 19 -506 25 -525 6 -20 15 -220 20 -465 6 -236 15 -452 21
-480 5 -27 14 -237 19 -465 5 -228 14 -446 20 -485 6 -38 15 -257 20 -485 5
-228 14 -451 20 -495 6 -44 17 -282 25 -530 8 -247 19 -475 25 -505 6 -31 15
-273 20 -550 6 -272 15 -515 20 -540 6 -25 15 -220 20 -435 5 -214 14 -417 20
-450 6 -33 15 -258 21 -500 5 -242 14 -480 19 -530 6 -49 15 -243 20 -430 6
-187 15 -380 20 -430 17 -142 32 -425 26 -480 -3 -27 -15 -68 -26 -90 -11 -21
-20 -49 -20 -61 0 -12 -6 -27 -14 -33 -8 -7 -18 -31 -21 -54 -4 -23 -16 -53
-26 -66 -11 -13 -19 -35 -19 -48 0 -13 -9 -41 -20 -61 -10 -20 -22 -54 -25
-74 -3 -21 -10 -38 -14 -38 -11 0 -31 -55 -31 -85 0 -13 -7 -25 -15 -29 -8 -3
-18 -23 -21 -46 -4 -22 -7 -40 -8 -41 0 0 -192 -3 -426 -6 l-425 -5 -21 28
c-11 16 -24 47 -28 68 -4 22 -16 51 -27 64 -10 14 -19 36 -19 51 0 14 -9 40
-20 56 -11 17 -20 42 -20 56 0 15 -9 38 -20 52 -11 14 -20 34 -20 45 0 27 -20
82 -30 82 -5 0 -12 20 -16 45 -3 26 -14 53 -23 62 -14 14 -16 41 -14 190 1 96
7 191 13 211 7 21 17 221 25 462 8 234 19 454 24 490 6 36 15 243 21 460 5
217 14 422 20 455 5 33 14 224 20 425 5 201 14 383 20 405 6 22 15 224 20 455
5 232 14 433 20 455 6 22 15 222 21 450 5 226 14 430 19 455 14 64 20 189 30
565 5 182 14 359 20 395 6 36 15 232 20 435 5 204 14 390 20 415 5 25 14 230
20 456 6 256 13 421 20 440 7 18 17 203 25 474 8 245 18 477 24 515 5 39 13
241 16 450 5 263 11 405 21 462 10 56 18 211 24 480 5 228 13 415 20 438 6 22
15 203 20 405 5 201 14 383 20 405 6 23 15 217 21 445 5 223 14 428 20 455 10
49 28 442 29 656 l0 107 48 10 c26 5 75 10 109 11 l62 1 5 -42z m-2394 -1207
c5 -11 10 -29 10 -41 0 -11 7 -31 16 -45 8 -13 18 -50 21 -82 3 -32 12 -66 20
-75 8 -9 18 -43 22 -75 4 -32 14 -69 23 -83 8 -14 18 -49 22 -79 3 -30 12 -61
20 -70 9 -9 18 -44 22 -76 4 -33 13 -70 21 -82 8 -12 17 -48 20 -80 3 -32 13
-66 21 -76 8 -9 17 -43 20 -75 3 -34 12 -66 23 -81 12 -14 19 -40 19 -65 0
-23 8 -57 19 -76 10 -19 21 -58 25 -86 3 -27 15 -68 26 -89 11 -22 20 -59 20
-83 0 -24 6 -50 14 -58 8 -8 18 -40 21 -71 4 -32 14 -65 21 -74 8 -9 18 -46
22 -83 7 -51 14 -73 34 -92 24 -25 25 -25 112 -14 49 6 94 17 102 24 7 8 49
17 96 21 51 4 90 13 100 22 12 11 47 17 110 20 64 4 99 10 111 21 12 11 47 17
125 20 71 3 115 9 131 19 16 11 71 18 180 24 86 5 172 13 191 18 19 5 55 13
80 16 42 6 46 5 63 -24 15 -26 16 -42 8 -143 -6 -62 -13 -237 -16 -388 -4
-151 -13 -354 -21 -450 -7 -96 -18 -339 -24 -540 -5 -201 -14 -399 -19 -441
-6 -42 -15 -246 -21 -455 -6 -208 -15 -417 -20 -464 -6 -47 -15 -231 -20 -410
-5 -179 -17 -404 -25 -500 -8 -96 -19 -317 -25 -490 -5 -173 -14 -355 -20
-405 -5 -49 -14 -254 -20 -455 -6 -201 -15 -403 -20 -450 -5 -47 -14 -249 -20
-450 -6 -201 -15 -403 -20 -450 -5 -47 -14 -238 -20 -425 -6 -187 -15 -374
-20 -415 -5 -41 -14 -212 -20 -380 -6 -168 -15 -375 -20 -460 -6 -85 -15 -279
-20 -430 -6 -151 -15 -349 -21 -440 -24 -374 -29 -494 -31 -763 -3 -277 -3
-283 20 -318 12 -20 22 -45 22 -55 0 -11 8 -35 19 -54 10 -19 21 -49 25 -67 4
-17 16 -48 27 -69 10 -21 19 -46 19 -56 0 -10 9 -32 20 -50 11 -18 20 -42 20
-53 0 -11 9 -33 20 -50 11 -16 20 -38 20 -48 0 -10 11 -42 24 -70 13 -29 26
-60 29 -70 12 -34 53 -39 297 -33 129 4 341 11 470 17 230 11 236 12 262 37
15 13 30 39 34 56 3 17 12 42 20 56 8 14 20 43 28 65 8 22 21 60 30 85 9 25
22 56 30 70 8 14 17 41 21 60 4 19 13 44 20 55 7 11 16 35 20 54 4 19 16 48
26 65 10 17 19 40 19 51 0 11 7 34 16 50 32 61 34 123 23 510 -6 209 -14 407
-19 440 -5 33 -14 231 -19 440 -6 209 -18 488 -26 620 -8 132 -17 350 -20 485
-3 135 -13 319 -20 410 -8 91 -19 338 -25 550 -5 212 -14 435 -20 495 -5 61
-14 299 -20 530 -6 231 -15 461 -20 510 -5 50 -14 248 -20 440 -6 193 -15 395
-20 450 -5 55 -14 269 -20 475 -6 206 -17 474 -25 595 -9 121 -20 373 -25 560
-6 187 -14 381 -20 431 -5 50 -14 266 -20 478 -6 213 -15 421 -20 462 -5 41
-14 260 -20 487 -6 226 -15 453 -20 504 -15 144 -13 178 13 208 22 26 23 26
67 11 28 -10 101 -18 195 -22 96 -4 163 -12 185 -21 19 -9 85 -19 147 -23 71
-4 120 -13 135 -22 13 -9 58 -17 106 -21 46 -3 93 -12 105 -20 12 -7 58 -17
101 -20 49 -4 86 -13 96 -22 11 -10 48 -17 111 -22 l95 -6 18 28 c10 15 21 51
25 80 4 29 14 64 23 76 8 13 17 48 20 77 3 29 12 60 22 70 10 12 16 36 16 63
0 25 8 61 19 82 10 20 22 58 26 84 4 27 15 67 26 90 10 23 19 62 19 86 0 31 6
49 20 62 14 13 20 31 20 60 0 45 17 105 30 105 4 0 10 27 13 60 4 33 13 73 21
88 7 15 17 50 20 77 4 28 14 60 22 73 8 13 18 46 21 75 3 29 13 63 21 77 9 14
19 51 23 83 4 32 14 66 22 75 8 9 18 47 22 84 3 38 13 72 21 79 8 6 14 26 14
44 0 18 7 38 15 45 21 17 177 8 208 -13 13 -8 50 -18 83 -22 32 -4 73 -16 90
-26 18 -11 50 -19 75 -19 25 0 60 -8 79 -18 19 -11 57 -22 84 -26 27 -3 57
-12 65 -20 9 -8 39 -17 68 -21 29 -4 57 -13 63 -20 7 -8 33 -17 58 -21 26 -4
58 -15 71 -25 13 -11 35 -19 48 -19 14 0 37 -8 51 -19 15 -10 45 -21 66 -24
22 -4 43 -13 48 -21 4 -7 28 -17 52 -20 24 -4 49 -13 56 -20 6 -8 25 -17 43
-20 18 -3 40 -15 50 -26 9 -11 29 -20 45 -20 16 0 37 -9 47 -20 10 -11 26 -20
35 -20 10 0 28 -8 41 -19 13 -10 35 -22 49 -26 14 -4 33 -16 43 -26 10 -11 26
-19 36 -19 10 0 26 -9 36 -20 10 -11 27 -20 37 -20 10 0 21 -7 24 -15 3 -8 24
-20 45 -25 21 -6 39 -15 39 -20 0 -5 16 -16 35 -24 19 -8 35 -20 35 -25 0 -6
11 -13 25 -17 14 -3 30 -15 36 -25 5 -11 18 -19 28 -19 11 0 21 -6 24 -13 3
-8 21 -22 41 -31 20 -9 36 -21 36 -26 0 -6 7 -10 15 -10 9 0 18 -7 22 -16 3
-8 16 -20 29 -25 34 -12 34 -85 0 -126 -13 -15 -26 -38 -30 -50 -4 -11 -13
-24 -21 -27 -8 -3 -15 -12 -15 -20 0 -8 -10 -27 -22 -43 -29 -36 -44 -60 -61
-98 -8 -16 -21 -36 -30 -44 -10 -7 -17 -21 -17 -31 0 -9 -9 -25 -20 -35 -11
-10 -20 -24 -20 -32 0 -7 -9 -21 -20 -30 -11 -10 -20 -21 -20 -26 0 -13 -62
-107 -71 -107 -4 0 -10 -14 -14 -30 -4 -17 -15 -36 -26 -43 -10 -6 -19 -19
-19 -27 0 -8 -9 -26 -20 -40 -11 -14 -20 -30 -20 -37 0 -6 -8 -18 -18 -25 -10
-7 -24 -28 -31 -45 -7 -18 -17 -33 -22 -33 -5 0 -11 -11 -15 -25 -3 -13 -13
-30 -21 -36 -8 -7 -20 -27 -28 -46 -8 -18 -19 -33 -24 -33 -6 0 -11 -8 -11
-18 0 -10 -9 -28 -20 -40 -11 -12 -20 -25 -20 -29 0 -10 -55 -93 -75 -114 -8
-9 -15 -21 -15 -28 0 -7 -11 -26 -25 -43 -14 -16 -25 -36 -25 -44 0 -8 -5 -14
-11 -14 -5 0 -16 -15 -24 -32 -8 -18 -28 -51 -44 -73 -17 -22 -37 -54 -45 -71
-7 -17 -19 -35 -25 -38 -14 -9 -15 -66 -1 -66 5 0 17 -8 27 -19 10 -10 30 -21
45 -25 15 -3 33 -12 40 -19 24 -23 94 -67 106 -67 6 0 17 -9 24 -20 7 -11 17
-20 22 -20 13 0 106 -62 106 -72 0 -4 5 -8 11 -8 17 0 119 -69 119 -81 0 -5 7
-9 15 -9 8 0 24 -9 34 -19 10 -10 28 -22 40 -26 12 -3 26 -15 31 -26 6 -10 20
-19 30 -19 11 0 20 -4 20 -9 0 -4 17 -20 38 -34 20 -13 52 -38 70 -53 18 -16
44 -38 58 -49 14 -11 33 -27 42 -36 10 -9 22 -18 28 -20 15 -5 101 -80 179
-156 35 -35 67 -63 70 -63 11 0 65 -58 65 -69 0 -6 5 -11 12 -11 10 0 118
-105 118 -115 0 -2 19 -24 43 -48 82 -86 127 -139 127 -152 0 -8 9 -17 20 -20
11 -3 20 -14 20 -23 0 -10 9 -23 20 -30 11 -7 20 -19 20 -27 0 -8 4 -15 10
-15 5 0 29 -29 51 -65 23 -36 46 -65 51 -65 4 0 8 -6 8 -14 0 -7 11 -25 25
-40 14 -15 25 -34 25 -42 0 -7 7 -22 16 -31 24 -27 64 -93 64 -105 0 -5 11
-23 25 -40 14 -16 25 -36 25 -44 0 -8 9 -23 20 -34 11 -11 20 -29 20 -40 0
-11 9 -29 20 -40 11 -11 20 -31 20 -44 0 -14 8 -31 18 -38 10 -7 22 -26 26
-42 4 -16 16 -41 27 -54 10 -14 19 -35 19 -48 0 -13 9 -33 20 -44 11 -11 20
-31 20 -44 0 -25 23 -55 43 -57 34 -3 64 5 80 22 10 10 26 19 37 19 11 0 24 9
30 20 6 11 17 20 25 20 7 0 20 6 27 14 8 7 28 21 46 30 18 9 32 21 32 26 0 6
6 10 14 10 8 0 28 11 44 25 17 14 37 25 46 25 9 0 19 6 22 14 3 8 20 20 37 27
18 7 36 19 40 26 4 7 13 13 19 13 5 0 23 11 40 25 16 14 35 25 42 25 6 0 19 9
29 20 9 11 24 20 32 20 8 0 15 4 15 10 0 5 19 20 41 32 54 30 68 38 106 66 17
12 36 22 42 22 5 0 14 6 18 14 4 7 22 21 38 30 45 25 67 39 98 64 16 12 32 22
37 22 9 0 65 36 90 58 25 22 154 102 175 108 11 4 26 15 33 25 7 11 20 19 28
19 8 0 14 4 14 9 0 5 18 16 40 25 22 9 40 20 40 24 0 5 11 14 25 20 14 7 31
16 38 22 83 70 177 94 177 46 0 -8 6 -16 14 -19 7 -3 17 -18 20 -34 4 -15 16
-37 26 -48 10 -11 32 -48 50 -82 17 -34 35 -65 40 -68 5 -3 12 -19 15 -36 4
-17 16 -40 26 -50 10 -10 19 -28 19 -39 0 -11 7 -23 15 -26 8 -3 19 -21 25
-39 6 -18 17 -39 25 -45 8 -7 17 -27 21 -45 3 -19 12 -36 19 -38 6 -3 15 -19
18 -36 4 -17 16 -40 27 -51 11 -11 20 -28 20 -38 0 -11 9 -29 20 -42 11 -13
20 -33 20 -46 0 -13 8 -31 19 -41 10 -10 21 -34 25 -55 4 -20 13 -38 20 -41 8
-3 17 -21 21 -39 4 -18 16 -44 26 -57 11 -13 19 -32 19 -43 0 -10 9 -31 19
-46 11 -15 22 -44 26 -64 3 -21 10 -38 15 -38 5 0 14 -17 20 -37 7 -21 20 -57
31 -80 10 -24 19 -46 19 -51 0 -4 9 -25 20 -47 11 -22 20 -47 20 -58 0 -10 9
-35 20 -57 11 -22 20 -51 20 -66 0 -15 8 -41 19 -58 10 -17 22 -53 26 -81 4
-27 13 -57 21 -66 8 -9 17 -40 21 -70 3 -30 12 -61 20 -70 8 -10 17 -43 20
-75 3 -33 14 -77 24 -100 10 -22 19 -61 19 -87 0 -63 -24 -87 -86 -87 -25 0
-64 -8 -87 -19 -23 -10 -73 -21 -112 -25 -38 -4 -76 -13 -85 -20 -8 -8 -46
-17 -84 -21 -39 -4 -80 -14 -93 -22 -13 -9 -56 -18 -96 -21 -44 -3 -79 -10
-90 -20 -10 -9 -47 -18 -90 -22 -39 -4 -85 -14 -102 -23 -16 -8 -62 -18 -102
-22 -40 -4 -77 -13 -83 -20 -6 -7 -43 -16 -83 -20 -39 -4 -81 -13 -92 -21 -11
-7 -51 -16 -90 -20 -38 -4 -80 -14 -93 -22 -12 -8 -52 -17 -90 -20 -37 -3 -83
-13 -102 -23 -19 -11 -49 -19 -66 -19 -17 0 -45 -5 -63 -11 l-31 -11 0 -104
c0 -80 4 -111 16 -130 13 -19 18 -58 22 -167 3 -98 9 -151 20 -172 10 -21 17
-83 23 -217 4 -110 13 -204 21 -226 19 -54 19 -986 0 -1020 -9 -15 -15 -77
-19 -170 -4 -96 -11 -159 -20 -182 -8 -19 -19 -88 -23 -153 -5 -74 -13 -126
-23 -140 -8 -13 -16 -57 -19 -108 -3 -58 -10 -95 -21 -113 -9 -14 -17 -41 -17
-59 0 -36 -14 -121 -25 -149 -12 -30 34 -64 94 -71 29 -3 60 -12 68 -19 8 -7
44 -15 79 -19 36 -3 72 -13 82 -22 9 -8 46 -18 82 -22 36 -4 72 -13 80 -21 9
-7 43 -16 75 -20 34 -4 70 -15 84 -26 17 -13 41 -18 81 -18 41 0 64 -5 81 -19
15 -11 48 -20 87 -24 35 -3 71 -12 80 -20 9 -8 44 -18 77 -22 33 -3 70 -13 82
-21 12 -7 48 -17 80 -20 32 -4 74 -15 93 -26 19 -10 55 -18 81 -18 32 0 53 -6
69 -20 17 -15 37 -20 78 -20 36 0 65 -6 86 -19 17 -10 58 -21 91 -25 32 -4 66
-13 75 -20 8 -8 25 -17 37 -20 31 -10 48 -33 35 -48 -5 -7 -13 -41 -17 -76 -4
-34 -13 -65 -20 -70 -7 -4 -14 -31 -17 -60 -3 -29 -12 -60 -21 -70 -9 -9 -19
-42 -22 -72 -4 -30 -15 -67 -26 -82 -10 -15 -19 -43 -19 -61 0 -19 -9 -46 -20
-60 -11 -14 -20 -38 -20 -54 0 -16 -9 -47 -20 -68 -11 -22 -23 -57 -26 -77 -4
-21 -13 -43 -20 -49 -7 -6 -16 -27 -20 -48 -4 -20 -15 -50 -25 -67 -11 -17
-19 -40 -19 -51 0 -11 -9 -32 -20 -46 -11 -14 -20 -39 -20 -56 0 -17 -8 -39
-19 -50 -10 -10 -21 -34 -25 -54 -4 -19 -13 -40 -21 -47 -7 -6 -17 -26 -21
-43 -3 -18 -14 -43 -24 -57 -10 -14 -21 -39 -24 -57 -4 -17 -14 -37 -22 -44
-8 -6 -14 -19 -14 -29 0 -9 -9 -29 -20 -43 -11 -14 -20 -32 -20 -40 0 -8 -8
-25 -19 -38 -10 -13 -22 -35 -26 -49 -4 -14 -13 -32 -20 -40 -7 -8 -20 -31
-29 -50 -8 -19 -20 -42 -25 -50 -5 -8 -14 -26 -20 -40 -30 -64 -52 -100 -61
-100 -6 0 -10 -8 -10 -19 0 -10 -8 -29 -19 -42 -10 -13 -21 -34 -25 -45 -4
-12 -15 -29 -26 -39 -11 -10 -20 -23 -20 -29 0 -11 -32 -60 -79 -123 -28 -38
-57 -42 -92 -14 -13 10 -34 21 -46 25 -13 4 -23 13 -23 20 0 8 -13 16 -29 19
-16 3 -36 14 -46 23 -19 19 -64 46 -107 64 -16 7 -28 16 -28 21 0 5 -15 16
-32 24 -54 25 -92 49 -101 63 -4 6 -14 12 -21 12 -7 0 -26 10 -41 22 -32 25
-77 51 -117 68 -14 6 -29 18 -32 26 -3 8 -15 14 -26 14 -11 0 -30 11 -42 25
-12 14 -29 25 -38 25 -9 0 -25 9 -35 20 -10 11 -23 20 -29 20 -6 0 -36 17 -67
39 -31 21 -66 42 -77 45 -12 4 -22 12 -22 17 0 5 -18 16 -40 25 -22 9 -40 20
-40 25 0 5 -15 16 -32 24 -64 31 -93 48 -101 62 -4 7 -15 13 -24 13 -21 0
-102 52 -103 66 0 7 -16 15 -36 18 -19 4 -38 14 -41 22 -3 8 -20 21 -37 30
-17 8 -49 26 -71 39 -22 13 -53 32 -70 41 -16 9 -34 23 -38 30 -4 8 -15 14
-23 14 -8 0 -26 7 -39 16 -22 14 -26 14 -49 -3 -13 -10 -29 -28 -35 -40 -6
-13 -15 -23 -21 -23 -5 0 -16 -15 -23 -32 -8 -18 -28 -48 -46 -67 -17 -18 -31
-35 -31 -36 0 -10 -114 -155 -121 -155 -5 0 -9 -7 -9 -15 0 -8 -9 -20 -20 -27
-11 -7 -20 -17 -20 -21 0 -12 -36 -59 -87 -113 -24 -25 -43 -52 -43 -60 0 -8
-7 -14 -15 -14 -9 0 -21 -11 -27 -25 -6 -14 -14 -25 -18 -25 -4 0 -19 -17 -33
-37 -14 -21 -57 -71 -96 -112 -39 -40 -71 -75 -71 -78 0 -2 -47 -52 -105 -109
-58 -58 -105 -109 -105 -114 0 -6 -4 -10 -8 -10 -5 0 -50 -39 -100 -87 -167
-162 -253 -238 -295 -263 -40 -24 -51 -25 -257 -31 -231 -6 -511 -24 -625 -39
-207 -28 -333 -48 -350 -57 -11 -6 -51 -13 -89 -17 -38 -4 -80 -13 -95 -20
-14 -8 -51 -17 -81 -21 -30 -4 -66 -13 -80 -20 -14 -7 -50 -18 -80 -23 -30 -6
-68 -18 -85 -26 -16 -9 -40 -16 -53 -16 -12 0 -39 -7 -60 -16 -20 -9 -57 -22
-82 -30 -70 -21 -152 -51 -185 -68 -16 -9 -36 -16 -44 -16 -8 0 -35 -9 -60
-21 -25 -11 -64 -29 -86 -38 -22 -10 -65 -29 -95 -43 -30 -14 -65 -29 -77 -33
-13 -3 -23 -11 -23 -16 0 -5 -5 -9 -11 -9 -12 0 -139 -61 -169 -80 -8 -6 -26
-15 -40 -21 -14 -5 -43 -21 -65 -34 -22 -13 -58 -33 -80 -44 -22 -12 -53 -30
-70 -41 -16 -11 -46 -29 -65 -40 -56 -33 -73 -44 -103 -67 -16 -13 -35 -23
-42 -23 -8 0 -18 -6 -22 -13 -4 -8 -20 -20 -34 -28 -54 -30 -99 -61 -99 -70 0
-5 -4 -9 -10 -9 -5 0 -26 -11 -46 -25 -70 -47 -73 -25 -8 54 116 144 156 189
269 305 115 119 310 286 334 286 5 0 15 9 21 20 6 11 15 20 21 20 5 0 22 8 37
19 15 10 49 33 77 50 44 28 74 61 75 84 0 4 -14 16 -31 26 -24 15 -38 17 -62
10 -36 -10 -121 -10 -154 -1 -12 4 -36 27 -53 51 -30 41 -32 50 -37 155 -6
115 11 315 28 348 6 11 14 45 19 76 5 31 16 73 24 92 19 46 45 124 59 180 7
25 20 59 30 77 9 18 17 40 17 50 0 10 9 32 20 48 11 17 20 37 20 45 0 8 9 32
20 53 11 20 20 43 20 50 0 6 12 34 26 61 31 58 37 133 13 149 -29 19 -65 -1
-115 -65 -27 -34 -56 -72 -64 -84 -8 -12 -30 -43 -47 -69 -18 -25 -33 -50 -33
-54 0 -5 -7 -14 -16 -21 -8 -8 -22 -27 -30 -44 -8 -17 -25 -49 -38 -71 -46
-77 -216 -425 -216 -442 0 -4 -9 -26 -19 -48 -44 -91 -61 -133 -61 -146 0 -8
-12 -36 -25 -64 -14 -27 -25 -56 -25 -63 0 -6 -9 -29 -20 -49 -11 -21 -20 -48
-20 -60 0 -12 -4 -25 -10 -28 -5 -3 -17 -32 -26 -63 -9 -31 -23 -66 -29 -77
-7 -11 -16 -36 -20 -55 -4 -19 -13 -44 -20 -55 -7 -11 -16 -36 -20 -55 -4 -19
-16 -51 -26 -70 -11 -19 -19 -43 -19 -52 0 -10 -9 -32 -20 -50 -11 -18 -20
-41 -20 -51 0 -9 -9 -34 -20 -54 -11 -21 -20 -44 -20 -52 0 -8 -8 -33 -18 -55
-10 -23 -24 -57 -31 -76 -50 -132 -76 -196 -101 -242 -11 -20 -20 -42 -20 -49
0 -12 -41 -100 -128 -279 -39 -79 -62 -110 -138 -187 -50 -51 -96 -93 -101
-93 -6 0 -14 -10 -20 -22 -16 -37 -22 -6 -7 37 8 22 19 73 24 114 5 41 14 79
20 86 5 7 15 50 21 96 6 46 17 95 24 109 7 14 16 51 20 83 3 32 13 73 20 90 7
18 16 59 20 92 4 33 13 75 21 92 7 18 18 67 23 109 6 41 15 84 21 94 6 10 15
53 21 94 5 42 16 91 23 109 8 17 17 58 21 90 3 32 13 73 20 90 7 18 16 59 20
92 4 33 13 75 21 92 7 18 18 67 23 109 6 41 16 85 22 96 6 12 15 54 20 94 5
40 16 85 24 101 8 15 15 40 15 54 0 54 3 54 -483 57 -395 3 -452 1 -473 -13
-28 -18 -31 -49 -9 -102 8 -20 18 -61 21 -92 4 -31 13 -72 21 -91 7 -19 18
-67 24 -107 6 -40 16 -88 23 -106 8 -17 17 -59 21 -92 4 -33 13 -74 20 -90 6
-17 15 -57 20 -90 4 -33 13 -75 20 -92 8 -18 19 -66 24 -105 6 -40 17 -91 25
-113 9 -22 15 -54 16 -71 0 -17 8 -58 19 -90 10 -33 22 -85 25 -117 4 -32 14
-73 21 -90 7 -18 16 -59 20 -92 4 -33 12 -71 18 -85 6 -14 19 -65 28 -115 9
-49 22 -108 27 -130 14 -53 32 -142 38 -185 3 -29 3 -31 -6 -12 -5 12 -14 22
-21 22 -15 0 -191 179 -207 210 -6 14 -16 32 -21 40 -15 24 -61 128 -61 138 0
5 -6 15 -14 21 -8 7 -17 24 -21 39 -3 15 -18 52 -32 82 -29 62 -41 91 -74 170
-12 30 -30 73 -40 95 -10 22 -21 54 -25 70 -4 17 -12 37 -19 45 -7 8 -18 37
-24 64 -7 27 -19 58 -27 70 -7 11 -14 30 -14 41 0 11 -9 34 -20 50 -11 17 -20
39 -20 50 0 12 -9 38 -19 59 -11 21 -23 52 -27 69 -4 18 -15 48 -25 67 -11 19
-19 44 -19 55 0 11 -9 34 -20 50 -11 17 -20 39 -20 50 0 12 -9 38 -19 59 -11
21 -23 52 -27 69 -3 18 -13 41 -20 52 -8 11 -14 26 -14 35 0 8 -11 38 -25 65
-13 28 -25 57 -25 65 0 9 -7 25 -14 36 -8 12 -20 42 -27 67 -6 26 -17 52 -25
58 -8 6 -14 19 -14 28 0 9 -8 30 -19 47 -10 17 -22 41 -26 55 -8 28 -136 285
-171 344 -13 22 -29 54 -37 70 -8 17 -21 36 -30 44 -10 7 -17 17 -17 22 0 5
-14 28 -31 51 -16 24 -39 58 -51 76 -11 17 -24 32 -28 32 -5 0 -11 8 -14 18
-10 29 -83 102 -103 102 -11 0 -27 -6 -37 -13 -16 -12 -17 -19 -7 -72 6 -32
17 -65 25 -74 8 -9 18 -29 22 -46 4 -16 15 -46 26 -65 10 -19 18 -41 18 -49 0
-7 8 -28 19 -45 10 -17 21 -47 25 -67 4 -21 13 -42 20 -48 7 -6 17 -30 20 -54
4 -23 13 -51 21 -63 7 -12 17 -39 21 -60 3 -21 13 -51 20 -65 7 -14 18 -57 25
-95 6 -38 15 -74 20 -80 23 -28 36 -311 20 -423 -7 -46 -14 -60 -50 -94 l-43
-40 -98 7 c-85 6 -100 4 -119 -11 -38 -31 -14 -65 91 -125 16 -9 37 -23 47
-32 10 -9 22 -16 27 -16 5 0 17 -8 26 -17 9 -10 33 -29 53 -43 48 -32 216
-179 280 -245 84 -87 209 -222 228 -247 10 -12 38 -48 62 -79 25 -31 45 -61
45 -68 0 -18 -20 -13 -52 14 -16 14 -36 25 -44 25 -8 0 -14 4 -14 9 0 4 -26
24 -57 44 -32 20 -65 41 -73 47 -8 6 -30 20 -49 33 -19 12 -46 30 -60 39 -14
10 -42 27 -61 38 -19 11 -53 32 -75 45 -22 13 -53 31 -70 39 -16 9 -48 27 -70
40 -69 40 -260 136 -273 136 -7 0 -12 4 -12 9 0 5 -10 13 -22 16 -13 4 -48 19
-78 33 -30 14 -75 34 -100 45 -25 11 -62 28 -82 38 -20 11 -45 19 -54 19 -9 0
-35 8 -58 19 -67 30 -216 83 -291 103 -22 6 -60 19 -85 28 -25 10 -63 20 -86
24 -22 3 -53 12 -70 20 -16 8 -54 17 -84 21 -30 4 -67 13 -81 20 -14 8 -54 17
-90 21 -35 4 -81 13 -102 20 -21 7 -85 18 -143 24 -57 6 -116 15 -130 20 -13
5 -95 14 -182 20 -86 6 -206 15 -267 20 -60 5 -183 10 -273 10 -124 0 -171 4
-200 15 -37 16 -129 90 -192 155 -19 20 -43 39 -52 43 -10 4 -18 13 -18 22 0
8 -6 15 -12 15 -7 0 -32 20 -56 45 -24 25 -47 45 -52 45 -6 0 -10 6 -10 14 0
8 -9 18 -20 21 -11 3 -20 12 -20 20 0 8 -9 16 -19 20 -11 3 -23 15 -26 26 -4
10 -13 19 -21 19 -8 0 -14 4 -14 9 0 5 -20 30 -45 54 -25 25 -45 50 -45 56 0
6 -5 11 -11 11 -13 0 -69 58 -69 71 0 4 -6 12 -14 16 -12 7 -66 69 -204 231
-20 24 -47 54 -60 67 -25 26 -72 92 -72 103 0 4 -9 13 -20 20 -11 7 -20 19
-20 27 0 8 -4 15 -9 15 -7 0 -123 147 -156 198 -5 8 -18 24 -27 34 -10 10 -18
24 -18 31 0 20 -89 107 -110 107 -10 0 -23 -7 -30 -15 -7 -8 -18 -15 -26 -15
-7 0 -18 -9 -24 -20 -6 -11 -17 -20 -24 -20 -7 0 -24 -8 -37 -19 -13 -10 -35
-22 -47 -26 -13 -4 -33 -16 -43 -26 -10 -10 -28 -19 -39 -19 -11 0 -20 -6 -20
-14 0 -8 -16 -20 -36 -26 -19 -7 -38 -18 -41 -26 -3 -8 -11 -14 -18 -14 -6 0
-24 -11 -39 -25 -15 -14 -38 -25 -52 -25 -14 0 -24 -6 -24 -15 0 -8 -11 -17
-24 -21 -14 -3 -32 -14 -42 -25 -9 -10 -26 -19 -36 -19 -10 0 -21 -6 -24 -14
-3 -8 -23 -22 -45 -30 -21 -9 -39 -20 -39 -25 0 -5 -10 -13 -22 -17 -13 -3
-31 -15 -41 -25 -10 -11 -29 -19 -42 -19 -14 0 -26 -7 -29 -18 -3 -10 -18 -23
-33 -30 -16 -6 -46 -23 -68 -37 -22 -13 -54 -31 -71 -39 -17 -8 -36 -22 -44
-30 -7 -9 -18 -16 -25 -16 -6 0 -20 -9 -30 -20 -10 -11 -26 -20 -35 -20 -9 0
-25 -9 -35 -20 -10 -11 -23 -20 -29 -20 -10 0 -87 -49 -96 -62 -3 -4 -22 -14
-43 -23 -20 -8 -37 -20 -37 -25 0 -5 -11 -12 -24 -16 -14 -3 -32 -14 -42 -25
-9 -10 -22 -19 -29 -19 -6 0 -20 -7 -30 -15 -38 -29 -110 -75 -118 -75 -5 0
-20 -9 -34 -20 -14 -11 -35 -20 -47 -20 -22 0 -70 52 -86 95 -5 14 -14 25 -20
25 -5 0 -12 11 -16 24 -3 14 -14 32 -25 42 -10 9 -19 25 -19 34 0 9 -9 25 -20
35 -11 10 -20 24 -20 30 0 7 -8 23 -19 36 -10 13 -22 35 -26 47 -4 13 -16 33
-26 43 -10 10 -19 27 -19 37 0 11 -9 27 -20 37 -11 10 -20 26 -20 35 0 10 -7
23 -14 30 -8 6 -20 28 -27 48 -7 20 -18 43 -25 50 -8 7 -17 25 -21 40 -3 15
-14 38 -25 51 -10 13 -18 32 -18 41 0 10 -7 23 -14 30 -8 6 -22 34 -31 61 -9
27 -20 51 -25 54 -4 3 -11 20 -14 39 -4 19 -13 39 -20 45 -8 7 -17 28 -21 48
-4 21 -13 42 -21 48 -8 5 -17 28 -21 50 -3 22 -12 48 -20 57 -8 9 -19 35 -24
58 -5 23 -16 48 -23 56 -8 7 -17 31 -21 53 -4 22 -12 45 -20 51 -7 6 -16 32
-20 57 -4 26 -15 58 -26 71 -11 14 -19 40 -19 60 0 20 -7 43 -16 53 -9 10 -18
37 -21 61 -3 24 -12 50 -19 59 -8 8 -19 42 -25 75 -7 32 -18 66 -25 74 -7 9
-16 43 -20 75 -4 34 -14 65 -22 71 -14 10 -34 145 -25 169 7 20 100 57 157 62
38 4 66 13 78 25 13 13 33 18 74 18 38 0 67 6 88 19 17 11 58 22 91 26 33 4
67 13 75 20 8 7 45 16 82 20 37 3 72 13 78 20 6 8 37 17 68 20 31 4 75 15 98
26 22 10 60 19 84 19 26 0 51 6 61 16 10 9 46 19 82 24 35 4 75 15 88 23 13 8
51 18 83 22 33 4 69 13 80 20 12 7 48 17 81 21 34 4 70 15 84 25 17 14 40 19
81 19 43 0 63 5 80 20 16 14 37 20 71 20 41 0 50 4 68 29 22 30 27 66 12 75
-4 3 -11 34 -15 69 -3 36 -13 78 -22 95 -8 17 -18 70 -21 119 -3 48 -12 98
-20 109 -8 13 -17 68 -22 135 -4 63 -13 125 -21 139 -9 16 -16 82 -21 182 -5
91 -15 179 -24 212 -14 48 -16 115 -13 508 2 333 6 459 15 474 8 13 16 100 21
226 7 146 14 213 24 234 11 20 17 73 20 176 4 114 9 153 22 172 12 19 16 49
16 120 0 87 -2 96 -22 110 -12 9 -43 16 -68 16 -28 0 -56 8 -75 20 -20 13 -47
20 -80 20 -30 0 -66 8 -87 18 -20 11 -70 22 -115 25 -46 4 -82 12 -88 20 -6 8
-40 17 -79 20 -38 4 -80 14 -93 22 -13 9 -56 19 -96 22 -40 3 -79 12 -88 20
-9 8 -53 18 -98 22 -48 5 -89 15 -99 24 -10 9 -46 16 -90 19 -44 3 -79 11 -90
20 -10 9 -47 18 -91 21 -44 4 -80 12 -90 21 -10 9 -51 19 -96 25 -44 5 -93 16
-110 25 -16 9 -50 16 -75 16 -68 0 -90 20 -90 82 0 30 8 69 19 92 10 23 21 67
24 100 3 32 12 65 20 75 9 9 18 42 22 74 4 32 14 64 22 72 7 8 17 38 20 67 3
29 14 67 24 84 11 17 19 43 19 57 0 14 7 33 16 41 8 9 18 33 21 53 3 21 14 54
23 73 10 19 23 54 29 78 7 23 16 42 21 42 4 0 11 18 15 40 4 22 13 47 21 54 7
8 18 33 23 56 5 23 16 49 25 59 9 10 16 27 16 38 0 11 9 32 20 46 11 14 23 40
27 57 3 17 12 34 19 37 7 2 15 22 19 43 4 21 13 44 21 51 7 6 19 29 24 50 6
22 15 39 20 39 4 0 14 17 21 38 6 20 18 40 25 45 7 4 16 22 19 40 4 17 13 39
20 47 7 8 16 26 20 40 4 14 16 36 26 49 11 13 19 30 19 37 0 8 9 22 20 31 11
10 20 25 20 34 0 9 9 28 20 42 11 14 20 32 20 40 0 8 8 25 18 38 10 13 23 35
30 49 7 14 26 48 43 75 16 28 34 62 40 78 6 15 15 27 20 27 5 0 15 11 21 25
14 31 68 35 97 6 10 -10 28 -22 39 -25 11 -4 27 -15 37 -26 10 -11 24 -20 31
-20 7 0 21 -8 31 -19 10 -10 29 -22 43 -26 14 -4 31 -16 38 -26 7 -11 20 -19
28 -19 8 0 17 -6 20 -14 3 -8 18 -18 34 -21 15 -3 36 -15 46 -26 9 -10 22 -19
27 -19 6 0 17 -7 26 -15 26 -26 91 -65 106 -65 8 0 19 -9 25 -20 6 -11 16 -20
23 -20 7 0 37 -18 67 -40 30 -22 67 -45 83 -51 15 -6 27 -17 27 -25 0 -8 9
-14 19 -14 11 0 32 -11 47 -25 15 -14 31 -25 35 -25 10 0 97 -58 104 -71 4 -5
15 -9 25 -9 11 0 24 -9 30 -20 6 -11 17 -20 25 -20 7 0 26 -10 42 -22 31 -25
53 -39 98 -64 17 -9 34 -23 38 -30 4 -8 17 -14 27 -14 10 0 22 -5 26 -11 3 -6
22 -17 41 -25 18 -8 36 -21 40 -29 3 -8 10 -15 16 -15 5 0 25 -11 43 -25 18
-14 37 -25 42 -25 5 0 17 -9 27 -20 10 -11 24 -20 32 -20 7 0 21 -8 32 -19 48
-48 108 -23 130 57 6 23 16 42 21 42 6 0 10 8 10 18 0 9 8 31 19 47 10 17 23
47 30 67 7 20 18 39 26 42 8 3 15 17 15 31 0 14 9 34 20 45 11 11 20 29 20 40
0 11 9 29 20 40 11 11 22 31 26 44 3 13 14 32 25 42 10 9 19 25 19 34 0 10 7
23 16 30 8 8 21 28 29 47 8 18 19 33 24 33 6 0 11 9 11 19 0 11 4 23 10 26 5
3 39 51 75 106 36 54 70 99 75 99 6 0 10 7 10 15 0 8 9 19 20 25 11 6 20 16
20 21 0 12 33 54 93 120 20 22 37 43 37 46 0 3 18 23 40 44 22 22 40 41 40 44
0 9 109 115 118 115 5 0 12 9 15 20 3 11 12 20 20 20 8 0 17 9 20 20 3 11 12
20 20 20 9 0 19 9 22 20 3 11 10 20 14 20 5 0 30 20 57 46 27 25 56 51 64 58
8 6 42 35 76 64 33 29 66 52 72 52 7 0 12 6 12 14 0 8 9 17 19 21 11 3 34 20
52 36 18 17 46 37 63 46 17 9 35 22 39 29 4 8 14 14 21 14 7 0 22 11 34 25 12
14 28 25 35 25 8 0 22 9 32 20 10 11 23 20 29 20 6 0 17 9 24 20 7 11 17 20
23 20 6 0 24 11 41 25 16 14 35 25 43 25 7 0 15 7 19 15 3 8 12 15 19 15 8 0
21 7 28 17 8 9 29 22 47 30 17 7 32 18 32 23 0 5 15 17 33 25 49 23 90 49 102
62 5 7 19 16 30 20 57 24 85 49 85 75 0 17 -8 31 -20 38 -13 7 -20 21 -20 40
0 19 -6 31 -18 34 -10 3 -23 18 -30 33 -7 16 -23 46 -37 68 -13 22 -32 53 -41
70 -9 16 -23 35 -30 43 -8 7 -14 20 -14 28 0 8 -7 17 -15 20 -8 3 -19 21 -25
40 -6 19 -16 34 -21 34 -5 0 -16 15 -24 33 -25 53 -49 91 -63 100 -7 4 -19 22
-27 40 -18 39 -33 63 -62 100 -13 16 -23 34 -23 42 0 7 -7 18 -16 25 -8 8 -22
27 -30 44 -7 17 -23 45 -34 61 -21 32 -56 91 -79 132 -7 14 -22 34 -32 44 -10
10 -19 24 -19 29 0 6 -9 19 -20 30 -11 11 -20 29 -20 40 0 10 -9 24 -20 30
-11 6 -20 18 -20 26 0 9 -11 29 -25 46 -14 16 -25 36 -25 43 0 8 -6 18 -13 22
-14 8 -31 36 -61 99 -9 17 -22 34 -31 37 -8 4 -15 15 -15 25 0 10 -9 27 -19
36 -11 10 -23 32 -27 50 -3 17 -10 36 -15 42 -5 6 0 16 13 25 11 8 32 23 45
34 42 36 67 55 118 87 28 18 54 38 58 45 4 7 14 13 21 13 8 0 19 6 25 14 7 8
26 22 44 31 18 9 52 29 77 45 25 16 74 43 109 61 35 18 73 41 83 51 10 10 27
18 38 18 11 0 29 9 40 20 11 11 28 20 39 20 10 0 24 7 31 15 7 8 18 15 25 15
6 0 33 11 59 25 26 14 53 25 60 25 7 0 25 9 39 21 15 11 44 23 64 26 21 3 41
12 46 19 4 7 24 16 45 20 20 4 50 15 67 26 16 10 43 18 58 18 15 0 40 9 55 19
15 10 47 22 70 25 24 4 50 13 58 21 8 7 35 17 59 21 25 3 62 15 82 25 21 11
53 19 73 19 19 0 49 9 65 20 18 12 47 20 74 20 25 0 57 8 75 19 17 10 58 22
91 26 33 4 67 13 75 20 18 16 52 21 142 24 57 1 69 -2 78 -18z m1000 -12288
c0 -12 9 -27 20 -33 11 -6 20 -17 20 -24 0 -7 11 -34 25 -60 14 -26 25 -53 25
-60 0 -7 9 -25 20 -39 11 -14 20 -33 20 -44 0 -10 9 -31 20 -48 11 -16 20 -37
20 -45 0 -8 12 -37 25 -65 14 -27 25 -56 25 -63 0 -8 7 -26 15 -40 8 -15 21
-45 29 -67 8 -22 19 -56 26 -75 7 -19 21 -54 31 -78 11 -23 19 -50 19 -60 0
-9 9 -32 20 -50 11 -18 20 -40 20 -50 0 -10 9 -35 19 -56 11 -21 23 -52 27
-69 4 -18 15 -48 25 -67 11 -19 19 -42 19 -50 0 -8 9 -32 20 -53 11 -20 20
-45 20 -55 0 -9 8 -33 19 -52 10 -19 22 -51 26 -70 4 -19 13 -42 20 -50 7 -8
16 -31 20 -50 4 -19 16 -49 26 -66 10 -17 19 -39 19 -47 0 -9 10 -35 21 -57
16 -30 19 -44 11 -52 -8 -8 -13 -6 -19 8 -4 10 -14 26 -24 34 -9 8 -65 76
-125 150 -91 112 -304 336 -395 415 -56 49 -189 153 -201 159 -10 4 -10 7 -1
12 62 29 152 139 153 185 0 15 7 46 15 69 17 47 19 164 5 225 -5 22 -14 79
-20 127 -6 47 -17 103 -25 122 -9 20 -18 63 -22 96 -4 41 -10 60 -19 60 -10 0
-14 13 -14 43 0 31 3 38 10 27 5 -8 10 -25 10 -37z m2527 -36 c-8 -7 -18 -36
-21 -66 -4 -30 -14 -70 -21 -88 -8 -19 -17 -58 -21 -86 -3 -29 -12 -91 -21
-140 -25 -146 -2 -317 55 -399 17 -23 51 -56 76 -73 25 -16 46 -32 46 -35 -1
-3 -19 -16 -41 -30 -22 -14 -49 -33 -60 -43 -11 -10 -48 -42 -82 -70 -73 -60
-259 -245 -337 -336 -30 -35 -66 -77 -80 -92 -14 -15 -47 -57 -75 -93 -27 -36
-53 -66 -58 -66 -4 0 -12 -11 -17 -25 -5 -14 -14 -25 -20 -25 -15 0 -12 36 5
53 8 8 18 33 23 55 5 22 17 50 26 63 9 13 16 30 16 39 0 8 7 28 15 43 8 16 21
50 29 75 8 26 21 61 30 77 9 17 16 41 16 53 0 13 9 35 20 49 11 14 20 35 20
47 0 12 9 38 20 59 11 20 20 45 20 55 0 9 8 33 19 52 10 19 22 51 26 70 4 19
13 42 20 50 7 8 16 31 20 50 4 19 15 53 25 75 9 22 23 56 30 75 32 92 43 118
61 156 10 22 19 46 19 52 0 7 9 29 20 49 11 21 20 44 20 51 0 7 8 30 19 50 10
20 28 57 39 82 11 25 31 70 46 101 14 31 26 61 26 67 0 6 9 16 20 22 11 6 20
19 20 30 0 10 3 27 8 37 5 13 8 8 10 -20 2 -25 -2 -43 -11 -50z m-4842 -787
c116 -5 225 -14 243 -19 19 -6 87 -15 153 -21 65 -6 134 -17 152 -24 17 -8 66
-17 107 -21 41 -3 86 -13 100 -20 14 -7 56 -18 93 -23 38 -6 74 -15 81 -21 6
-5 40 -14 74 -20 34 -5 72 -17 84 -25 12 -9 36 -16 53 -16 17 0 46 -9 66 -19
20 -11 54 -23 75 -26 22 -4 48 -13 59 -20 11 -7 36 -16 55 -20 19 -4 51 -16
70 -26 19 -11 44 -19 56 -19 12 0 27 -6 33 -14 7 -8 24 -17 39 -21 14 -3 49
-17 78 -31 28 -13 58 -24 67 -24 9 0 18 -4 21 -9 5 -8 23 -17 188 -95 42 -20
79 -40 82 -45 3 -5 18 -12 33 -16 16 -3 35 -12 43 -20 8 -7 42 -27 75 -44 32
-18 67 -38 75 -46 9 -8 23 -15 32 -15 8 0 23 -9 33 -20 10 -11 23 -20 29 -20
6 0 45 -23 86 -50 41 -28 82 -55 90 -60 8 -6 47 -32 85 -60 39 -27 94 -66 124
-87 48 -34 193 -147 246 -191 11 -9 47 -39 79 -66 110 -92 367 -340 419 -404
l27 -34 0 -208 c0 -115 -3 -215 -6 -224 -5 -12 -10 -13 -30 -4 -13 6 -24 14
-24 18 0 4 -11 12 -25 18 -14 7 -31 17 -38 22 -18 16 -135 93 -166 109 -14 8
-28 17 -31 21 -3 4 -18 15 -35 24 -16 9 -47 27 -67 39 -72 42 -213 124 -228
131 -8 4 -37 20 -65 36 -125 72 -571 286 -635 305 -14 4 -34 14 -45 21 -11 8
-26 14 -35 14 -8 0 -31 8 -50 19 -19 10 -49 21 -67 25 -17 4 -48 16 -69 27
-21 10 -45 19 -54 19 -8 1 -33 9 -55 20 -22 11 -48 19 -58 20 -10 0 -37 8 -60
19 -23 10 -58 22 -77 26 -19 3 -48 12 -65 20 -28 13 -88 29 -218 60 -32 7 -76
21 -98 29 -22 9 -53 16 -69 16 -17 0 -56 9 -87 19 -32 11 -83 22 -114 25 -31
3 -71 12 -90 20 -19 8 -68 17 -109 21 -41 4 -93 13 -115 21 -22 7 -91 18 -152
24 -62 6 -123 14 -136 19 -13 5 -93 14 -178 21 -85 6 -176 16 -204 22 -55 10
-354 24 -764 34 -272 7 -1063 -10 -1271 -27 -63 -5 -180 -14 -260 -19 -223
-16 -386 -29 -490 -40 -52 -5 -160 -14 -240 -20 -80 -7 -163 -14 -185 -16 -32
-4 -36 -3 -22 6 9 6 17 16 17 23 0 7 25 26 56 42 30 17 63 38 71 48 9 9 20 17
26 17 5 0 23 10 40 23 41 29 65 43 104 61 17 9 33 19 35 23 1 5 37 25 78 47
41 21 94 51 116 66 23 15 58 33 78 40 20 6 36 15 36 20 0 5 13 11 29 15 16 3
39 15 52 26 12 10 28 19 35 19 7 0 34 11 60 25 26 14 53 25 59 25 7 0 18 6 24
14 6 7 25 16 42 20 17 3 42 15 56 26 14 11 34 20 45 20 10 0 36 9 56 19 20 10
53 24 72 31 19 7 64 23 100 37 36 13 85 30 110 38 25 8 68 21 95 30 28 10 64
22 80 27 17 6 62 18 101 27 39 10 76 21 82 25 6 4 44 13 84 21 40 8 98 21 128
29 30 9 71 16 91 16 20 0 56 7 80 16 24 8 95 20 157 25 62 5 125 15 140 21 57
22 518 32 847 18z m7770 0 c110 -5 214 -13 230 -19 17 -6 81 -15 143 -21 62
-6 124 -15 139 -21 14 -5 60 -14 102 -20 42 -5 94 -17 116 -25 22 -8 67 -18
100 -23 33 -5 78 -16 100 -25 22 -8 52 -15 68 -16 15 0 44 -9 64 -20 21 -11
49 -20 63 -20 14 0 39 -7 55 -16 17 -9 53 -22 80 -29 69 -18 143 -45 186 -67
20 -10 45 -18 54 -18 10 0 32 -9 49 -19 17 -10 45 -22 63 -26 17 -3 37 -13 44
-21 6 -8 18 -14 26 -14 9 0 32 -9 52 -19 20 -10 99 -50 176 -87 77 -37 190
-96 252 -131 62 -35 116 -63 121 -63 5 0 15 -7 22 -16 8 -8 27 -22 44 -29 38
-18 62 -33 99 -62 16 -13 34 -23 41 -23 7 0 21 -9 31 -20 10 -11 23 -20 30
-20 7 0 20 -9 29 -19 10 -11 28 -22 42 -25 13 -4 24 -13 24 -22 0 -9 9 -18 20
-21 11 -3 17 -9 14 -14 -3 -5 -10 -6 -16 -3 -15 10 -250 34 -331 34 -37 0
-112 7 -166 15 -55 8 -195 19 -313 25 -117 6 -242 15 -278 21 -71 11 -451 25
-960 35 -343 6 -1123 -17 -1190 -35 -19 -5 -102 -14 -185 -20 -82 -6 -177 -17
-210 -25 -33 -7 -100 -17 -148 -20 -48 -4 -105 -13 -126 -21 -21 -7 -69 -16
-107 -20 -38 -3 -87 -12 -109 -20 -22 -7 -74 -19 -114 -25 -41 -6 -80 -15 -86
-20 -6 -5 -43 -14 -81 -19 -39 -6 -86 -17 -105 -24 -18 -8 -56 -18 -84 -22
-27 -4 -61 -13 -75 -20 -14 -7 -45 -16 -70 -20 -25 -4 -54 -13 -66 -20 -12 -8
-39 -17 -60 -20 -21 -4 -48 -13 -59 -20 -11 -7 -43 -17 -70 -23 -28 -6 -64
-18 -80 -26 -17 -9 -37 -16 -45 -16 -8 0 -32 -9 -53 -20 -20 -11 -45 -20 -54
-20 -10 0 -40 -11 -68 -25 -27 -13 -56 -25 -63 -25 -8 0 -26 -7 -40 -15 -38
-20 -169 -75 -180 -75 -5 0 -15 -6 -21 -14 -7 -8 -27 -17 -45 -20 -19 -4 -39
-13 -46 -21 -7 -8 -20 -15 -29 -15 -9 0 -27 -7 -41 -15 -14 -8 -43 -23 -65
-35 -22 -11 -47 -24 -55 -29 -8 -5 -26 -14 -40 -20 -14 -6 -32 -15 -40 -19
-36 -21 -78 -43 -115 -62 -22 -11 -47 -24 -55 -30 -15 -9 -176 -102 -228 -130
-15 -8 -54 -33 -87 -54 -33 -22 -94 -61 -135 -88 -41 -26 -79 -51 -85 -55 -51
-39 -97 -64 -110 -59 -13 5 -15 37 -15 220 l0 214 27 34 c50 62 336 337 433
417 144 118 313 249 375 291 98 66 135 93 145 105 7 8 18 15 24 15 6 0 37 18
70 41 32 22 68 45 80 50 11 5 41 23 66 39 25 16 59 36 75 44 17 9 48 26 70 40
43 26 224 119 265 136 14 5 32 14 40 19 8 5 38 19 65 31 28 12 73 32 100 45
28 12 71 32 98 44 26 11 53 21 60 21 7 0 29 9 50 20 20 11 45 20 55 20 9 0 33
9 53 19 20 11 54 23 75 27 22 4 55 15 74 25 19 11 46 19 60 19 14 1 43 9 65
20 22 11 52 19 67 20 15 0 49 8 75 19 26 10 71 21 100 25 28 4 67 13 85 20 18
8 70 19 116 25 45 6 91 15 101 21 11 5 73 14 138 20 65 6 133 15 152 21 70 23
548 34 866 19z m-4910 -900 c3 -5 1 -10 -4 -10 -6 0 -11 5 -11 10 0 6 2 10 4
10 3 0 8 -4 11 -10z m1450 0 c3 -5 -1 -10 -10 -10 -9 0 -13 5 -10 10 3 6 8 10
10 10 2 0 7 -4 10 -10z m-4895 -120 c168 -5 330 -13 360 -19 30 -6 134 -15
230 -20 97 -5 188 -15 204 -21 16 -6 82 -15 148 -20 66 -6 143 -16 171 -24 29
-8 86 -18 127 -21 41 -4 89 -13 105 -20 17 -7 57 -15 90 -19 33 -4 89 -16 124
-27 35 -10 76 -19 92 -19 15 0 51 -9 79 -20 28 -11 63 -20 78 -20 15 -1 45 -8
67 -16 22 -9 65 -22 95 -29 54 -13 126 -35 185 -57 17 -5 53 -17 80 -24 28 -8
64 -21 82 -29 17 -8 37 -15 45 -15 7 0 29 -9 49 -19 20 -11 53 -23 73 -26 20
-4 38 -11 41 -15 3 -5 22 -14 43 -20 38 -12 98 -38 164 -71 20 -11 44 -19 52
-19 8 0 35 -11 59 -23 24 -13 53 -27 63 -30 11 -4 26 -11 34 -16 8 -5 86 -45
173 -88 163 -81 194 -97 262 -138 22 -14 58 -34 80 -45 22 -11 49 -25 60 -32
11 -7 50 -32 87 -55 37 -24 70 -43 72 -43 3 0 31 -17 63 -39 32 -21 84 -56
117 -77 32 -21 68 -46 81 -54 12 -8 49 -33 83 -55 33 -22 63 -50 66 -61 6 -22
-9 -168 -19 -184 -2 -4 -9 -58 -14 -119 -6 -61 -15 -120 -21 -131 -6 -12 -16
-49 -21 -83 -6 -34 -16 -71 -23 -82 -7 -11 -18 -36 -25 -55 -21 -61 -63 -102
-113 -107 -45 -5 -67 2 -133 42 -22 14 -58 34 -80 45 -22 11 -58 31 -80 45
-22 13 -51 29 -65 34 -14 6 -32 15 -40 20 -8 5 -44 24 -80 42 -36 18 -76 41
-89 51 -13 10 -31 18 -41 18 -10 0 -28 9 -42 19 -13 11 -36 23 -51 26 -14 4
-31 13 -38 21 -6 7 -26 16 -45 20 -19 3 -37 10 -39 15 -7 10 -160 83 -355 167
-25 11 -71 32 -102 46 -31 14 -60 26 -63 26 -7 0 -106 44 -148 65 -16 8 -36
15 -45 15 -9 0 -39 11 -67 25 -27 13 -56 25 -63 25 -7 0 -30 9 -52 20 -22 11
-47 20 -57 20 -10 0 -35 9 -56 20 -20 11 -45 20 -55 20 -9 0 -33 8 -52 19 -19
10 -53 21 -75 25 -22 4 -49 13 -60 20 -11 8 -36 17 -55 20 -19 4 -57 16 -85
25 -106 39 -152 53 -195 62 -25 5 -61 15 -80 23 -36 15 -128 39 -215 58 -27 5
-74 19 -103 29 -30 10 -66 19 -81 19 -15 0 -52 8 -82 19 -30 10 -83 21 -118
25 -36 4 -76 13 -90 20 -14 8 -57 17 -95 21 -38 4 -86 13 -107 20 -21 8 -71
17 -111 20 -40 4 -96 13 -124 21 -28 7 -103 18 -167 24 -63 5 -127 14 -142 20
-14 5 -98 15 -187 20 -89 6 -184 16 -212 21 -191 37 -1610 37 -1754 0 -20 -5
-116 -14 -214 -20 -97 -6 -188 -15 -202 -21 -15 -5 -87 -14 -162 -20 -75 -6
-148 -16 -162 -21 -14 -5 -73 -14 -131 -20 -58 -6 -131 -17 -162 -25 -92 -23
-113 -19 -147 24 -16 20 -33 51 -36 69 -7 30 0 38 141 185 82 84 173 179 203
212 30 32 81 85 113 119 31 33 57 66 57 73 0 25 43 36 184 45 77 5 187 16 242
25 56 8 186 19 290 24 105 6 205 15 224 20 19 6 143 15 275 20 132 6 283 15
335 21 188 22 915 32 1380 19z m9275 0 c187 -5 376 -14 420 -19 44 -6 193 -15
330 -21 138 -5 268 -14 290 -20 22 -5 128 -14 235 -20 107 -6 211 -15 230 -20
19 -5 103 -14 187 -19 262 -18 261 -18 290 -64 28 -44 81 -101 328 -355 94
-95 174 -181 179 -189 9 -17 -9 -93 -23 -93 -4 0 -13 -11 -19 -25 -10 -21 -18
-25 -56 -25 -24 0 -61 6 -83 14 -22 8 -80 17 -129 21 -49 3 -116 13 -149 21
-33 8 -117 19 -187 25 -70 5 -139 14 -152 19 -14 5 -106 14 -203 20 -98 6
-196 15 -218 21 -143 33 -1485 37 -1720 4 -60 -8 -173 -19 -250 -25 -77 -5
-155 -14 -173 -19 -18 -6 -85 -15 -147 -21 -63 -5 -126 -15 -140 -20 -15 -6
-70 -15 -123 -20 -53 -6 -119 -17 -147 -25 -27 -8 -86 -20 -130 -26 -44 -6
-88 -15 -97 -20 -9 -5 -49 -13 -89 -19 -40 -6 -78 -15 -84 -20 -6 -5 -44 -14
-84 -21 -40 -6 -87 -17 -104 -24 -18 -7 -54 -16 -82 -20 -27 -4 -56 -11 -62
-17 -7 -6 -45 -16 -84 -24 -39 -7 -77 -18 -83 -23 -7 -6 -32 -13 -56 -17 -25
-4 -63 -15 -85 -25 -22 -10 -51 -19 -64 -19 -13 0 -42 -8 -65 -19 -23 -10 -59
-23 -81 -29 -60 -16 -136 -42 -170 -58 -16 -7 -46 -17 -65 -20 -19 -4 -46 -13
-60 -20 -14 -8 -43 -20 -65 -28 -22 -8 -60 -21 -85 -30 -25 -9 -57 -23 -72
-31 -14 -8 -32 -15 -40 -15 -8 0 -31 -9 -53 -20 -22 -11 -44 -20 -49 -20 -5 0
-28 -9 -50 -19 -23 -11 -75 -33 -116 -51 -41 -17 -88 -37 -105 -45 -16 -8 -51
-23 -77 -34 -27 -12 -67 -30 -90 -40 -24 -11 -54 -25 -68 -30 -14 -6 -32 -15
-40 -20 -8 -5 -82 -41 -165 -81 -82 -40 -157 -76 -165 -81 -8 -5 -51 -27 -95
-49 -44 -22 -116 -61 -160 -86 -44 -24 -96 -52 -115 -60 -19 -9 -37 -20 -40
-24 -3 -4 -21 -15 -40 -24 -19 -9 -46 -23 -60 -32 -16 -10 -42 -13 -74 -11
-38 3 -53 10 -72 33 -34 40 -83 149 -90 198 -3 23 -12 57 -19 78 -8 20 -19 85
-25 145 -6 59 -15 126 -20 148 -14 67 -21 159 -13 171 5 6 19 17 32 24 14 7
30 17 35 21 44 35 78 59 121 87 28 18 57 37 65 42 63 42 197 125 265 164 27
15 57 34 66 42 8 8 21 14 27 14 6 0 23 11 39 24 15 13 39 27 53 31 14 4 31 12
37 17 28 23 375 198 391 198 5 0 15 6 21 14 7 8 26 18 43 22 18 3 65 24 105
45 41 22 82 39 91 39 9 0 31 9 47 20 17 11 39 20 50 20 11 0 34 9 51 19 17 10
46 22 65 26 19 4 50 16 69 26 19 11 44 19 55 19 11 0 37 9 58 20 20 11 47 20
59 20 13 0 37 7 53 16 17 9 53 22 80 29 28 7 68 20 90 29 22 8 50 15 63 16 13
0 35 6 50 14 16 8 57 20 92 26 36 6 70 15 75 20 6 4 44 13 85 20 41 6 93 18
115 25 22 8 66 17 99 20 32 4 75 12 95 19 20 7 68 16 106 20 39 4 93 14 122
22 28 8 102 18 165 24 62 5 129 14 148 20 19 6 112 15 205 21 94 5 199 14 235
20 138 23 806 33 1315 19z"/>
<path d="M28465 35679 c-324 -237 -598 -437 -609 -444 -17 -13 -14 -20 60
-124 44 -60 83 -110 87 -111 5 0 185 128 400 285 216 157 393 281 395 277 1
-4 -92 -238 -207 -520 -115 -281 -212 -520 -216 -532 -5 -15 15 -50 80 -140
48 -67 91 -120 95 -118 5 2 281 201 614 443 385 279 604 445 601 453 -9 24
-149 212 -158 212 -5 0 -188 -131 -408 -291 -220 -160 -402 -289 -405 -287 -2
3 97 250 221 548 221 535 224 544 208 569 -41 64 -154 211 -161 210 -4 0 -272
-194 -597 -430z"/>
<path d="M11862 35629 c-63 -11 -138 -47 -188 -91 -52 -46 -125 -145 -338
-462 -156 -230 -186 -280 -175 -291 8 -7 223 -153 479 -325 256 -172 533 -359
616 -416 l151 -103 221 333 c242 362 297 459 314 554 31 168 -74 362 -240 444
-118 58 -256 48 -367 -27 -20 -14 -37 -25 -39 -25 -2 0 -6 34 -8 75 -14 219
-208 372 -426 334z m115 -310 c92 -45 126 -139 84 -234 -21 -47 -224 -359
-240 -369 -9 -6 -291 181 -291 193 0 14 218 332 253 370 60 63 121 76 194 40z
m559 -310 c112 -54 148 -161 91 -274 -24 -47 -255 -395 -263 -395 -3 0 -79 50
-170 112 -113 77 -163 117 -159 126 10 27 217 321 258 368 72 81 159 104 243
63z"/>
<path d="M7170 34478 c-162 -365 -308 -695 -326 -734 l-32 -70 154 -69 c85
-37 156 -66 157 -64 2 2 57 124 122 272 66 147 124 267 129 267 5 0 347 -150
760 -334 413 -184 757 -336 764 -338 9 -2 41 58 92 172 44 96 79 180 79 185 0
6 -344 163 -764 350 -421 186 -765 344 -765 350 0 6 53 131 119 277 l118 265
-149 67 c-81 36 -152 66 -156 66 -4 0 -140 -298 -302 -662z"/>
<path d="M33085 34886 c-160 -26 -318 -80 -479 -164 -410 -211 -602 -590 -515
-1015 57 -280 205 -528 401 -673 80 -58 150 -94 258 -130 81 -27 94 -28 265
-28 163 0 189 3 277 26 673 183 1002 651 857 1221 -60 239 -215 489 -373 601
-86 62 -215 121 -317 146 -108 26 -270 33 -374 16z m324 -411 c172 -41 302
-160 373 -341 133 -343 -50 -636 -494 -792 -229 -81 -393 -83 -556 -5 -140 66
-251 216 -287 388 -18 87 -18 113 0 200 43 203 188 358 435 465 208 91 384
119 529 85z"/>
<path d="M29430 34345 c-360 -201 -656 -369 -658 -374 -4 -11 546 -1007 554
-1005 11 3 214 116 214 120 0 2 -90 167 -201 365 -110 199 -201 366 -202 372
-1 5 79 54 177 109 153 86 181 99 190 86 6 -9 90 -158 186 -332 96 -174 178
-316 182 -316 4 0 54 26 112 58 l104 58 -184 333 c-102 184 -182 336 -180 339
19 19 291 161 297 155 4 -5 94 -166 201 -359 l194 -352 111 62 110 61 -271
492 c-149 271 -273 492 -276 492 -3 0 -300 -164 -660 -364z"/>
<path d="M10783 34209 l-111 -201 382 -366 c209 -201 382 -369 384 -373 2 -4
-228 51 -510 122 -282 71 -516 129 -520 129 -3 0 -48 -75 -99 -167 -50 -93
-100 -182 -110 -199 l-19 -31 657 -364 c361 -200 661 -365 667 -367 10 -2 136
215 136 234 0 5 -231 137 -514 294 -282 157 -510 286 -506 288 5 2 1027 -265
1161 -304 11 -3 34 30 85 123 38 69 67 129 65 132 -2 3 -168 161 -370 350
-421 395 -513 483 -509 486 2 2 233 -125 513 -281 281 -156 514 -282 519 -281
5 2 37 54 72 117 48 88 60 118 51 126 -7 6 -286 163 -622 349 -335 186 -628
348 -651 361 l-41 24 -110 -201z"/>
<path d="M30520 33245 c-198 -56 -315 -243 -295 -475 3 -41 19 -160 36 -265
33 -206 32 -253 -4 -306 -48 -71 -136 -88 -225 -43 -58 29 -99 75 -141 160
-78 158 -60 279 58 393 l59 57 -71 126 -72 126 -29 -16 c-52 -29 -182 -165
-209 -217 -47 -94 -60 -159 -54 -265 9 -145 65 -300 163 -446 93 -141 193
-212 333 -236 184 -31 403 76 476 234 55 118 57 245 10 518 -19 108 -26 179
-23 237 3 74 6 84 32 112 42 43 88 50 143 21 124 -66 211 -296 154 -407 -11
-23 -39 -57 -61 -76 l-41 -35 68 -137 69 -136 62 41 c74 50 112 94 155 179 27
56 32 77 35 161 5 126 -20 227 -93 377 -101 206 -238 317 -405 328 -51 3 -93
0 -130 -10z"/>
<path d="M6630 33061 c-35 -105 -62 -192 -60 -194 16 -14 1905 -656 1911 -650
15 15 129 367 122 373 -6 5 -1656 576 -1898 657 -5 2 -39 -82 -75 -186z"/>
<path d="M33621 32566 c-525 -161 -956 -297 -958 -302 -3 -10 401 -1341 410
-1350 7 -8 317 87 317 96 0 5 -66 223 -146 485 -80 263 -142 481 -137 485 4 4
359 115 788 245 429 131 785 240 791 244 7 4 -9 71 -48 195 -32 104 -59 191
-61 192 -1 1 -431 -130 -956 -290z"/>
<path d="M9967 32603 c-20 -48 -114 -283 -210 -521 -96 -237 -172 -434 -167
-437 36 -22 1395 -564 1401 -558 9 10 421 1034 423 1051 1 14 -210 105 -224
97 -3 -2 -76 -177 -161 -389 -85 -212 -159 -386 -164 -386 -6 0 -94 33 -195
74 -121 49 -184 79 -183 88 2 7 64 163 138 347 74 184 135 339 135 345 0 6
-50 31 -111 55 -87 34 -113 41 -119 31 -5 -8 -68 -162 -141 -344 -73 -182
-136 -335 -140 -340 -6 -7 -319 109 -319 118 0 2 69 174 154 383 l154 381
-107 42 c-58 23 -111 44 -117 47 -7 2 -26 -33 -47 -84z"/>
<path d="M6205 31688 c-104 -420 -190 -770 -193 -779 -3 -13 24 -23 145 -53
81 -20 155 -39 163 -41 13 -4 29 48 85 276 39 154 73 286 77 292 5 9 236 -45
805 -187 439 -110 807 -200 817 -200 17 -1 26 24 67 189 26 104 46 191 44 193
-2 2 -369 95 -815 207 -446 112 -813 205 -815 207 -2 2 27 127 65 278 38 151
70 282 70 290 0 12 -38 25 -152 53 -84 21 -158 37 -163 37 -6 0 -96 -343 -200
-762z"/>
<path d="M30730 31695 c-388 -134 -705 -244 -706 -245 -5 -3 96 -275 103 -277
7 -3 1070 358 1420 482 16 6 -79 279 -98 282 -8 1 -331 -108 -719 -242z"/>
<path d="M9625 31142 c-108 -37 -199 -112 -244 -200 -39 -76 -262 -776 -250
-786 6 -5 1444 -444 1446 -442 9 8 83 270 80 280 -3 6 -121 47 -263 90 -143
44 -263 83 -267 87 -5 4 7 58 27 120 112 362 120 483 39 631 -94 173 -381 285
-568 220z m256 -337 c23 -17 53 -50 67 -75 20 -38 23 -55 19 -115 -4 -80 -84
-365 -101 -365 -15 0 -396 117 -403 123 -7 7 50 199 88 297 47 124 112 173
221 168 55 -3 75 -9 109 -33z"/>
<path d="M30190 31019 c0 -16 82 -283 89 -291 3 -4 87 -12 186 -18 98 -6 180
-12 181 -13 1 -1 42 -132 90 -291 l88 -288 -30 -27 c-16 -14 -82 -67 -145
-116 l-116 -90 47 -153 c25 -84 49 -154 51 -155 10 -4 1269 1015 1269 1027 0
13 -87 296 -92 300 -1 1 -354 28 -783 60 -429 31 -792 59 -807 61 -16 3 -28 0
-28 -6z m1065 -350 c132 -7 244 -15 248 -19 8 -7 -444 -360 -461 -360 -7 0
-122 362 -122 384 0 9 63 8 335 -5z"/>
<path d="M34306 30900 c-277 -32 -489 -106 -658 -231 -255 -189 -382 -510
-338 -855 55 -440 275 -734 635 -847 321 -101 792 -25 1080 174 181 125 316
329 359 541 21 99 21 299 1 414 -22 125 -79 290 -131 379 -83 141 -242 281
-400 351 -145 64 -367 94 -548 74z m338 -430 c103 -26 182 -70 249 -137 159
-159 207 -431 112 -631 -88 -186 -281 -301 -585 -347 -267 -41 -473 8 -610
145 -106 106 -168 276 -156 430 21 289 239 479 626 545 118 20 274 18 364 -5z"/>
<path d="M6205 30406 c-126 -29 -240 -99 -322 -198 -116 -140 -203 -426 -203
-670 0 -352 203 -597 510 -615 105 -7 179 8 268 52 156 79 269 228 402 535 56
128 136 287 165 325 16 20 48 48 72 62 38 22 53 25 108 21 51 -3 73 -10 107
-34 50 -35 103 -109 119 -167 17 -59 14 -201 -5 -277 -54 -214 -166 -307 -403
-335 -47 -6 -53 -10 -53 -30 0 -29 -18 -263 -25 -322 l-5 -43 93 0 c325 1 558
163 673 468 59 159 78 273 78 477 0 169 -1 185 -27 261 -85 254 -313 413 -592
414 -145 0 -268 -48 -374 -146 -79 -73 -135 -158 -222 -340 -194 -406 -199
-414 -252 -469 -38 -39 -62 -55 -90 -60 -51 -10 -114 10 -147 45 -79 84 -80
329 -4 485 47 96 126 147 251 162 36 4 54 11 57 22 12 42 48 372 42 379 -14
13 -160 12 -221 -2z"/>
<path d="M34596 28590 c-244 -28 -475 -119 -633 -250 -394 -326 -426 -1002
-74 -1526 33 -49 80 -109 104 -133 l45 -43 396 34 c218 19 398 37 401 39 6 7
-69 856 -77 864 -4 4 -79 1 -167 -6 l-161 -13 0 -25 c1 -14 9 -118 19 -231 10
-113 17 -207 14 -210 -2 -3 -59 -10 -126 -16 -141 -12 -135 -14 -199 79 -200
293 -197 616 6 820 102 102 239 163 436 192 411 63 681 -66 786 -375 15 -43
19 -84 19 -195 0 -138 -1 -142 -32 -206 -44 -88 -97 -146 -176 -192 l-65 -38
10 -37 c5 -20 22 -82 38 -137 15 -55 35 -126 44 -158 20 -68 16 -68 141 -7
177 85 302 236 360 435 55 184 43 502 -26 709 -39 117 -76 185 -153 282 -135
170 -332 284 -567 329 -103 19 -265 26 -363 15z"/>
<path d="M5530 28424 c0 -11 -7 -93 -15 -183 -10 -104 -12 -167 -6 -171 6 -3
288 -29 628 -59 340 -29 638 -56 663 -60 l45 -7 -705 -353 c-388 -194 -707
-355 -709 -357 -5 -5 -40 -388 -36 -392 4 -4 2009 -179 2014 -176 5 5 35 363
30 368 -2 2 -294 30 -649 61 -355 30 -649 57 -655 59 -5 1 304 161 686 354
l695 351 18 201 c10 111 16 202 15 204 -2 1 -434 39 -959 85 -525 45 -979 85
-1007 88 -47 5 -53 4 -53 -13z"/>
<path d="M5380 26086 l0 -206 48 0 c26 0 478 -7 1005 -16 526 -10 960 -15 963
-12 3 3 8 93 11 201 l6 195 -184 6 c-101 3 -481 10 -844 16 -363 5 -738 12
-832 16 l-173 5 0 -205z"/>
<path d="M34660 26270 c-498 -10 -907 -18 -909 -19 -6 -2 6 -392 13 -398 2 -3
416 2 918 11 502 9 955 16 1006 16 l92 0 0 205 0 205 -107 -1 c-60 -1 -515
-10 -1013 -19z"/>
<path d="M6280 21729 c-1 -2 -77 -238 -169 -524 l-169 -520 -558 -5 -559 -5
55 -41 c30 -23 231 -168 445 -323 215 -155 391 -288 393 -296 2 -7 -73 -246
-167 -531 -94 -285 -169 -519 -167 -521 1 -1 204 145 451 325 l449 328 444
-324 c244 -178 446 -322 448 -319 5 4 -320 1016 -333 1039 -2 4 104 84 234
179 131 95 335 242 453 328 l215 156 -560 5 -559 5 -168 519 c-148 458 -177
543 -178 525z"/>
<path d="M34648 21725 c-2 -6 -78 -239 -168 -520 -90 -280 -169 -516 -174
-524 -9 -12 -95 -13 -558 -7 -302 4 -548 4 -548 -1 0 -4 203 -154 450 -332
247 -179 447 -328 444 -332 -8 -13 -343 -1043 -340 -1046 1 -2 203 144 449
323 367 267 450 323 464 315 10 -5 212 -151 448 -324 237 -173 431 -311 433
-307 2 6 -307 963 -335 1036 -2 7 191 152 429 324 238 172 442 321 453 332 20
19 12 19 -539 16 l-559 -3 -167 515 c-91 283 -168 522 -171 530 -3 7 -8 10
-11 5z"/>
<path d="M17235 16723 c-313 -26 -516 -154 -600 -378 -74 -195 -24 -410 128
-560 113 -111 215 -155 582 -251 282 -74 357 -109 395 -184 47 -92 10 -220
-83 -291 -81 -61 -132 -74 -293 -74 l-140 0 -76 38 c-50 24 -90 53 -113 80
-41 48 -90 145 -100 198 -12 66 -3 64 -215 44 l-192 -18 7 -46 c12 -85 37
-166 82 -260 84 -176 234 -295 448 -353 70 -19 106 -22 295 -22 191 -1 225 2
305 22 138 35 245 91 324 170 119 120 174 259 173 437 -2 179 -46 290 -162
405 -111 111 -235 166 -555 246 -371 92 -455 143 -455 271 0 55 20 91 70 128
64 47 123 60 275 60 126 0 145 -2 192 -24 85 -38 150 -125 168 -224 l7 -38 97
5 c53 3 144 8 203 12 l107 6 -5 46 c-20 158 -74 271 -178 369 -114 109 -247
162 -455 183 -100 10 -151 10 -236 3z"/>
<path d="M15840 15680 l0 -1010 200 0 200 0 0 1010 0 1010 -200 0 -200 0 0
-1010z"/>
<path d="M18370 16525 l0 -165 298 -2 297 -3 3 -842 2 -843 200 0 200 0 0 845
0 845 300 0 300 0 0 165 0 165 -800 0 -800 0 0 -165z"/>
<path d="M22740 15681 l0 -1011 200 0 200 0 0 385 0 385 245 0 c390 0 502 20
645 115 108 72 191 188 226 316 24 88 29 251 10 349 -42 226 -201 397 -415
447 -54 13 -161 17 -588 20 l-523 5 0 -1011z m751 670 c135 -7 163 -12 210
-33 109 -50 158 -127 159 -248 0 -93 -28 -160 -90 -213 -75 -64 -105 -70 -382
-75 l-248 -4 0 284 c0 157 3 288 7 291 8 9 149 8 344 -2z"/>
<path d="M24610 15680 l0 -1010 200 0 200 0 0 1010 0 1010 -200 0 -200 0 0
-1010z"/>
<path d="M20970 15405 l0 -195 375 0 375 0 0 195 0 195 -375 0 -375 0 0 -195z"/>
<path d="M12145 13148 c-335 -430 -615 -788 -621 -797 -10 -13 11 -33 130
-126 77 -60 145 -111 151 -112 5 -1 226 274 490 613 263 338 483 618 488 621
10 6 35 62 -333 -767 -172 -388 -314 -710 -316 -716 -3 -5 65 -65 149 -131
l154 -121 642 500 c353 275 644 498 646 496 2 -1 -214 -282 -480 -623 -455
-583 -483 -621 -467 -637 48 -47 277 -217 283 -211 22 24 1239 1589 1238 1593
0 7 -461 364 -474 368 -6 1 -264 -191 -575 -427 -310 -237 -565 -429 -567
-428 -1 2 123 298 276 658 154 359 277 657 275 661 -7 11 -451 358 -466 363
-8 3 -239 -285 -623 -777z"/>
<path d="M28042 13755 c-115 -26 -247 -106 -449 -272 -257 -212 -663 -556
-663 -562 1 -10 1291 -1546 1300 -1546 4 0 75 57 158 127 l152 126 -270 322
c-149 177 -270 325 -270 329 0 15 154 131 210 159 46 23 67 27 130 26 87 -1
159 -19 595 -145 273 -80 312 -89 331 -77 11 7 95 76 187 153 166 139 166 140
139 151 -45 19 -551 181 -658 211 -88 24 -116 27 -256 27 l-157 0 35 46 c202
267 188 537 -41 765 -140 140 -309 197 -473 160z m126 -421 c92 -46 152 -140
152 -239 0 -74 -26 -124 -109 -205 -68 -67 -411 -360 -422 -360 -7 0 -322 376
-327 389 -3 9 151 142 352 305 173 140 248 163 354 110z"/>
<path d="M25794 12340 l-189 -97 2 -44 c5 -105 207 -2105 214 -2113 4 -4 91
35 193 89 l186 96 -5 37 c-28 197 -54 447 -48 452 4 4 168 88 363 188 l356
180 184 -166 184 -166 193 99 c106 55 192 103 191 106 -2 4 -370 329 -819 722
l-816 715 -189 -98z m510 -699 c157 -145 286 -267 286 -270 0 -7 -471 -246
-485 -246 -5 0 -31 171 -57 380 -53 430 -51 408 -39 403 4 -1 137 -122 295
-267z"/>
<path d="M14485 11506 c-428 -409 -777 -748 -777 -752 0 -5 85 -48 188 -97
l188 -88 171 171 c93 93 175 170 181 170 14 0 716 -328 727 -339 5 -5 2 -114
-8 -252 -9 -134 -13 -245 -8 -246 4 -2 94 -43 198 -92 l190 -89 3 26 c4 44
121 2156 119 2158 -34 19 -377 174 -384 174 -6 0 -361 -335 -788 -744z m745
-173 c-17 -213 -33 -390 -36 -392 -4 -4 -83 32 -403 182 l-105 48 285 285
c156 156 285 280 287 274 2 -5 -11 -184 -28 -397z"/>
<path d="M16724 11643 c-127 -500 -481 -1939 -479 -1941 8 -9 386 -99 389 -93
2 3 36 137 75 297 l73 292 204 125 c126 77 207 121 209 114 2 -7 72 -243 154
-526 83 -283 154 -518 159 -523 7 -7 495 -129 499 -124 1 1 -105 315 -237 696
-131 382 -238 696 -236 698 2 2 211 133 465 291 l460 288 -263 67 -263 68
-508 -336 c-279 -185 -510 -335 -512 -333 -2 2 44 196 103 431 58 236 102 431
98 436 -5 4 -85 26 -179 49 -93 23 -178 44 -187 47 -13 4 -19 -3 -24 -23z"/>
<path d="M24005 11624 c-386 -69 -634 -244 -700 -495 -20 -73 -19 -212 1 -280
44 -148 140 -264 274 -332 123 -62 172 -68 565 -76 246 -6 360 -12 385 -21 93
-34 140 -101 140 -199 0 -139 -100 -247 -284 -308 -100 -32 -244 -37 -315 -10
-73 28 -145 90 -197 169 -26 40 -50 77 -54 81 -5 6 -353 -115 -368 -129 -8 -6
81 -171 118 -220 91 -121 208 -207 335 -247 95 -30 338 -32 460 -3 475 110
711 337 709 681 -1 239 -118 438 -314 533 -129 63 -205 74 -575 77 -370 3
-431 13 -484 81 -36 45 -45 100 -26 150 58 152 388 266 550 190 55 -25 113
-84 144 -144 l20 -40 193 61 c106 33 195 62 197 63 2 2 -18 47 -44 101 -129
265 -389 378 -730 317z"/>
<path d="M21860 11209 c-397 -28 -654 -213 -700 -504 -30 -187 51 -386 205
-502 115 -87 233 -126 570 -184 270 -46 294 -52 359 -87 73 -40 101 -88 101
-176 0 -59 -5 -79 -27 -118 -73 -123 -225 -185 -430 -176 -78 3 -104 9 -158
34 -104 49 -184 149 -221 272 -10 36 -16 42 -33 38 -12 -3 -97 -19 -191 -36
-93 -18 -172 -34 -174 -36 -9 -8 40 -158 73 -229 113 -240 314 -367 616 -390
173 -13 446 31 586 95 181 82 288 202 344 389 20 64 22 88 18 195 -8 179 -55
293 -165 402 -109 107 -274 166 -624 223 -216 36 -350 72 -397 108 -101 77
-95 197 13 271 73 50 172 76 290 76 125 1 182 -15 242 -67 42 -38 103 -140
103 -174 0 -8 12 -13 28 -13 42 1 371 46 378 52 11 11 -28 146 -64 218 -87
177 -279 299 -496 315 -39 3 -87 7 -106 9 -19 1 -82 -1 -140 -5z"/>
<path d="M19011 10199 c-255 -539 -461 -982 -460 -984 4 -3 423 -34 425 -32 0
1 45 103 99 226 l99 224 71 -6 c38 -3 220 -16 403 -28 275 -19 335 -26 341
-39 5 -8 39 -115 76 -237 52 -170 72 -223 84 -223 9 0 106 -7 215 -15 110 -8
201 -13 203 -11 3 2 -657 2066 -663 2074 -2 4 -357 31 -405 32 -25 0 -49 -49
-488 -981z m757 109 c61 -210 110 -383 109 -385 -4 -3 -549 36 -552 39 -4 5
320 728 325 728 3 0 56 -172 118 -382z"/>
</g>
</svg>
